<?xml version="1.0" encoding="utf-8"?>
<!-- Generator: Adobe Illustrator 27.4.0, SVG Export Plug-In . SVG Version: 6.00 Build 0)  -->
<svg version="1.1" id="Ebene_1" xmlns="http://www.w3.org/2000/svg" xmlns:xlink="http://www.w3.org/1999/xlink" x="0px" y="0px"
	 viewBox="0 0 349.3 47.1" style="enable-background:new 0 0 349.3 47.1;" xml:space="preserve">
<style type="text/css">
	.st0{fill:#FD5F00;}
	.st1{fill:#FDB991;}
	.st2{fill:#FEFEFF;}
</style>
<g id="qIOcZI.tif">
	<g>
		<path class="st0" d="M0,23.6C0,16.2,0,9,0,1.7c0-0.3,0-0.6,0-0.9C0,0.3,0.2,0,0.8,0c0.2,0,0.5,0,0.6,0c14.8,0,29.6,0,44.4,0
			c0.2,0,0.4,0,0.6,0c0.6,0,0.8,0.3,0.9,0.9c0,0.2,0,0.2,0,0.3c0,14.8,0,29.7,0,44.6c0,0.3,0,0.6,0,0.8c0,0.3-0.3,0.4-0.6,0.6
			c-0.2,0-0.3,0-0.5,0c-4.8,0-9.8,0-14.5,0c-10,0-20.2,0-30.3,0c-0.5,0-0.8,0-1-0.3C0,46.7,0,46.5,0,46.4c0-5.7,0-11.2,0-16.9
			C0,27.6,0,25.5,0,23.6z M4.6,44.9c0,0.2,0,0.2,0.2,0.3c0.8,0,1.7,0,2.4,0c-0.6-1.4-1.2-2.5-1.8-3.8c-0.8,0-1.5,0-2.2,0
			c-0.2,0-0.2,0.2-0.3,0.2c-0.3,0.5-0.5,0.9-0.8,1.2c-0.5,0.8-0.9,1.5-1.4,2.2c0.3,0,0.7,0,1,0c0-0.2,0.2-0.2,0.2-0.3
			s0.2-0.2,0.3-0.2C3,44.7,3.8,44.7,4.6,44.9C4.5,44.7,4.6,44.7,4.6,44.9z M21.6,42C21.6,42.2,21.6,42.2,21.6,42
			c0.2,0.1,0.3,0.1,0.3,0.1c0.6,0,1,0,1.6,0c0,0,0.2,0,0.3,0c-0.1,0.2-0.3,0.3-0.4,0.3c-0.6,0.4-1.1,0.9-1.7,1.5l-0.1,0.2
			c0,0.3,0,0.6,0,0.8c1,0,5.2,0,5.5,0c0-0.3,0-0.5,0-0.8c-0.8,0-1.5,0-2.2,0C25,44,25,44,25.2,43.8c0.6-0.6,1.2-1,1.8-1.7
			c0,0,0.2-0.1,0.2-0.3c0-0.3,0-0.5,0-0.8c-0.8,0-5.1,0-5.4,0C21.6,41.7,21.6,41.9,21.6,42z M27.8,45.2c0.2,0,0.3,0,0.4,0
			c1.2,0,2.2,0,3.4,0c0.2,0,0.3,0,0.3,0c0.4,0,0.7-0.3,0.7-0.8c0-0.8,0-1.3,0-2.1c0-0.4-0.3-0.8-0.7-0.8c-1.4,0-2.6,0-3.9,0
			c-0.5,0-0.8,0.3-0.8,0.8c0,0.8,0,1.5,0,2.1c0,0.2,0,0.5,0.1,0.6l0,0C27.6,45,27.8,45,27.8,45.2C27.8,45,27.8,45.2,27.8,45.2z
			 M37.7,43.4L37.7,43.4c-0.9-0.6-1.7-1.2-2.6-1.8c-0.2-0.1-0.3-0.1-0.4-0.1c-0.5,0-0.9,0-1.3,0c-0.2,0-0.2,0-0.3,0
			c0,1.2,0,2.4,0,3.8c0.3,0,0.6,0,1.1,0c0-0.3,0-0.6,0-0.9c0-0.3,0-0.6,0-0.9c0.6,0.5,1.2,0.9,1.8,1.3c0.5,0.3,0.8,0.5,1.2,0.5
			c0.8,0,1.5,0,2.2,0c0.1,0,0.1,0,0.3,0c0-1.2,0-2.4,0-3.8c-0.8,0-1.3,0-2.1,0C37.7,42.2,37.7,42.8,37.7,43.4z M3.6,38.3
			C3.4,38.4,3.4,38.4,3.6,38.3c0.1,0.1,0.1,0.1,0.1,0.1c2.2,0,4.5,0,6.8,0h0.1c0-1.9,0-3.9,0-5.8c0,0,0,0,0-0.2c0.1,0,0.3,0,0.5,0
			c2.1,0,4.4,0,6.5,0c0.1,0,0.3,0,0.5,0c0-1.6,0-3.4,0-5.1c0.4,0,7.4,0,7.6,0c0,0.3,0,0.6,0,0.9c1.2,0,2.4,0,3.6,0
			c-0.3-0.3-0.4-0.6-0.6-1.1c1,0,2.1,0,3.1,0c0,0.3,0,0.6,0,1.1c2.4,0,4.9,0,7.4,0c0,1.9,0,4,0,6c-1.1,0-2,0-2.8,0c0,1,0,2.1,0,3.2
			c0.4,0,6,0,6.3,0c0-0.3,0-0.5,0-0.8c0-4.5,0-8.9,0-13.4v-0.2c0-0.1,0-0.1-0.2-0.1h-0.1c-1.7,0-3.3,0-5,0c-0.2,0-0.2,0-0.3,0
			c0-3.3,0-6.6,0-9.9c0.1,0,0.3,0,0.3,0c1,0,2.2,0,3.3,0c0.6,0,0.6,0,0.6-0.6c0,0,0,0,0-0.2c0-1.3,0-2.7,0-4c0-0.1,0-0.1,0-0.3
			c-3.5,0-6.8,0-10.2,0c0,0.2,0,0.3,0,0.3c0,1.2,0,2.4,0,3.6c0,2,0,4.1,0,6l0,0c-0.3,0-0.8,0-1.1,0s-0.8,0-1.1,0s-0.8,0-1.1,0
			c0-0.5,0-0.8,0-1.2c-1.7,0-3.3,0-4.8,0c0-0.1,0-0.1,0-0.3c0-1.3,0-2.7,0-3.9c0-0.3,0-0.4,0.3-0.6c0.2-0.2,0.3-0.3,0.5-0.4
			c-0.6-0.6-1-1.2-1.5-1.8c0,0,0,0,0-0.1c1,0,2.1,0,3.3,0c0,2.4,0,4.6,0,7.1c2.1-2,3.8-4.1,3.9-7.1c0.6-0.1,1-0.6,1.5-0.9
			c0,0,0,0,0.1-0.2H31c-0.5,0-1.1,0-1.5,0c0-0.1,0-0.4,0-0.6c-0.2-1.3-0.6-2.6-1.4-3.8c-0.6-1-1.5-1.9-2.2-2.7l-0.1-0.1
			c0,2.4,0,4.8,0,7.2c-1.4,0-2.6,0-3.8,0c0-0.3,0-0.4,0-0.6c0.1,0,0.1,0,0.1,0c0.3,0,0.6-0.1,0.8-0.3l0.1-0.1
			c0.2-0.2,0.2-0.2,0.2-0.3c0-0.6,0-1.2,0-1.8c0-0.2-0.6-0.8-0.8-0.9l0,0c-0.8,0-1.3,0-2.1,0c-0.2,0-0.3,0-0.3,0.2
			c-0.3,0.1-0.4,0.4-0.8,0.6c-0.1,0.2-0.1,0.3-0.1,0.5c0,0.6,0,1.4,0,1.9c0,0.1,0,0.1,0,0.3c0.1,0,0.3,0,0.6,0
			c-0.3,0.3-0.3,0.3-0.3,0.6c0,0.3,0,0.3-0.3,0.3c-0.9,0-1.8,0-2.7,0c-0.2,0-0.2,0-0.3,0c0,0.3,0,0.5,0,0.8c-0.2,0.2,0,0.2,0,0.2
			c0.1,0,0.3,0,0.3,0c0.9,0,1.7,0,2.5,0c0.2,0,0.3,0,0.3,0c0.2,0.3,0.2,0.5,0.2,0.6c0,2.6,0,4.9,0,7.5c0,0.2,0,0.2,0,0.3
			c0,0.2,0,0.2-0.2,0.2c-0.1,0-0.4,0-0.6,0c-4,0-8.1,0-12,0c-0.1,0-0.1,0-0.3,0c0,0.3,0,0.5,0,0.8c0,2.4,0,5,0,7.4
			c0,0.2,0,0.2,0,0.3c0.5,0,4,0,4.2,0c0,0,0,0,0-0.1c0-1.9,0-4.1,0-6c0-0.2,0-0.3,0-0.5c0,0,0,0,0-0.2c0,0,0,0,0.1,0
			c0.5,0,1.1,0,1.7,0c0,2.6,0,5.2,0,7.8v0.1c-2,0-3.9,0-5.9,0c0,0.2,0,0.3,0,0.4c0,2.1,0,4.3,0,6.5c0,0.3,0,0.3-0.3,0.3
			c-0.9,0-1.6,0-2.5,0H3.6c0,0,0,0,0,0.2c0,0.8,0,1.5,0,2.2C3.6,37.7,3.6,38,3.6,38.3z M11.1,43.2c-0.3-0.6-0.6-1-0.9-1.7
			c-0.2-0.1-0.2-0.1-0.5-0.1c-0.8,0-1.4,0-2.1,0c-0.1,0-0.1,0-0.3,0c0,1.2,0,2.4,0,3.6c0.3,0,0.8,0,1,0c0-0.3,0-0.6,0-1.1
			c0-0.3,0-0.6,0-0.9c0.3,0.6,0.8,1,1.1,1.6C9.6,44.8,9.6,45,9.9,45c0.5,0,0.8,0,1.2,0c0.1,0,0.3,0,0.4-0.2c0.3-0.3,0.6-0.8,0.8-1
			c0-0.2,0.2-0.2,0.2-0.3l0,0c0,0.5,0,0.9,0,1.5c0.8,0,1.3,0,2.1,0c0-0.4,0-3.4,0-3.8c-0.6,0-1.2,0-2,0c-0.1,0-0.1,0-0.3,0.2
			c-0.3,0.4-0.8,0.9-1,1.3C11.2,43,11.2,43,11.1,43.2z M45.8,41.4c-1.8,0-3.6,0-5.4,0c0,1.2,0,2.4,0,3.8c1.8,0,3.6,0,5.4,0
			c0-0.3,0-0.6,0-0.9c-1.1,0-2.2,0-3.3,0c0-0.3,0-0.5,0-0.6c1.1,0,2.2,0,3.3,0c0-0.3,0-0.6,0-0.9c-1.1,0-2.2,0-3.3,0
			c0-0.2,0-0.5,0-0.6c0.6,0,1.1,0,1.7,0s1.1,0,1.7,0C45.8,42,45.8,41.7,45.8,41.4z M21.3,45.2c-0.6-1.2-1.2-2.5-1.8-3.8
			c-0.8,0-1.5,0-2.2,0c-0.2,0-0.2,0.2-0.3,0.2c-0.2,0.3-0.3,0.5-0.5,0.8c-0.5,0.9-1,1.7-1.5,2.6c0,0,0,0.1-0.2,0.3
			c0.3,0,0.4,0,0.8,0s0.3-0.2,0.4-0.3v-0.2c0.9,0,1.7,0,2.5,0c0,0.2,0.2,0.3,0.2,0.4C19.7,45.2,20.4,45.2,21.3,45.2z"/>
		<path class="st0" d="M137.9,20.4c-0.3,0.5-0.6,1-0.9,1.5c-0.3,0.6-0.6,1-0.9,1.6c-0.1,0.4-0.4,0.8-0.6,1.2
			c-0.3,0.4-0.5,0.8-0.8,1.2c-0.2,0.3-0.5,0.8-0.6,1.1c-0.3,0.6-0.8,1.2-1.1,1.8c-0.3,0.4-0.4,0.9-0.8,1.3c-0.3,0.6-0.6,1.1-0.9,1.7
			c-0.4,0.7-0.8,1.4-1.2,2.1c-0.2,0.4-0.5,0.8-0.6,1.2c-0.3,0-0.5,0-0.8,0c-2.7,0-5.4,0-8.2,0c-0.2,0-0.3,0-0.3,0
			c-0.1,0-0.3,0-0.4-0.2c-0.3-0.6-0.6-1-0.9-1.5c-0.6-1-1.3-2.1-2-3.1c-0.6-0.9-1.2-1.9-1.8-2.8c-0.5-0.8-1-1.7-1.5-2.4
			c-0.6-0.9-1-1.8-1.7-2.7c-0.3-0.4-0.4-0.8-0.8-1.2l0,0l0,0c0,4.6,0,9.3,0,14.1c-0.3,0.2-4.8,0.2-5.4,0l0,0l0,0l0,0
			c0-0.2,0-0.2,0-0.3c0-7.5,0-14.9,0-22.4l0,0l0,0c3.5,0,6.9,0,10.4,0c1.5,0,3,0,4.3,0c0.2,0,0.2,0,0.3,0c0.3,0,0.6,0.6,0.9,1.2
			c0.2,0.3,0.5,0.6,0.6,0.9c0.2,0.3,0.5,0.6,0.6,1c0.1,0.2,0.3,0.5,0.3,0.6c0.3,0.4,0.6,0.9,0.8,1.3c0.3,0.5,0.6,0.9,0.9,1.4
			c0.4,0.6,0.8,1.2,1.2,1.9c0.3,0.6,0.8,1.1,1.1,1.7c0.3,0.6,0.6,1,1,1.6c0.2,0.3,0.5,0.6,0.6,0.9c0.1,0.2,0.1,0.3,0.3,0.6l0.1-0.2
			c0.6-0.9,1-1.9,1.6-2.8c0.5-0.8,0.9-1.7,1.5-2.4c0.5-0.8,0.8-1.3,1.2-2.1c0.4-0.8,0.8-1.4,1.2-2.1s0.9-1.5,1.4-2.2
			c0.3-0.4,0.6-0.9,0.9-1.5c0.1-0.2,0.1-0.2,0.3-0.2c0.1,0,0.3,0,0.4,0c4.1,0,8.2,0,12.3,0c0.1,0,0.3,0,0.4,0c0,7.7,0,15.2,0,22.8
			c-4.2,0-8.4,0-12.6,0c0-0.2,0-0.3,0-0.5c0-4.5,0-9,0-13.6c0-0.1,0-0.3,0-0.5C137.9,20.4,137.9,20.4,137.9,20.4L137.9,20.4z"/>
		<path class="st0" d="M310.3,35c-5.8,0-11.8,0-17.7,0c-0.3,0-0.5,0-0.8-0.3c-0.8-0.6-1.7-1.1-2.4-1.7c-0.8-0.5-1.5-1.1-2.2-1.5
			c-1.8-1.2-3.6-2.6-5.4-3.8c-1.7-1.2-3.5-2.4-5.1-3.4c-0.4-0.3-1-0.6-1.6-1.1c0,0,0,0,0-0.2c0,0,0,0,0,0.2c0,3.9,0,7.8,0,11.7
			c-1.8,0-3.6,0-5.4,0c0-7.6,0-15.1,0-22.8c0.2,0,0.2,0,0.3,0c3.5,0,6.8,0,10.2,0c0.3,0,0.5,0.2,0.8,0.3c1,0.8,2.2,1.5,3.3,2.2
			c2.1,1.5,4.2,2.8,6.5,4.3s4.4,3,6.6,4.5c0.1,0.2,0.4,0.3,0.6,0.4c0.2,0,0.2,0.2,0.3,0.2c0-3.9,0-8,0-11.9c0,0,0,0,0-0.2
			c0.1,0,0.3,0,0.4,0c3.9,0,7.8,0,11.7,0c0.1,0,0.1,0,0.3,0c0,0.2,0,0.3,0,0.5c0,7.4,0,14.7,0,22l0,0
			C310.3,34.8,310.3,34.8,310.3,35z"/>
		<path class="st0" d="M247.5,35c-4.2,0-8.2,0-12.5,0c-0.4,0-1,0-1.5-0.2c-1.6-0.4-2.8-1.9-3-3.7c0-0.3,0-0.8,0-1.1
			c0-4.4,0-8.9,0-13.2c0-0.6,0-1.3,0.3-2c0.2-0.6,0.6-1,1.1-1.5c0.8-0.8,1.6-1.2,2.8-1.2c0.2,0,0.3,0,0.5,0c8.2,0,16.5,0,24.9,0
			c0.9,0,1.8,0.2,2.6,0.8c1.2,0.8,1.8,1.8,1.9,3.1c0,0.3,0,0.6,0,0.9c0,4.3,0,8.7,0,13.1c0,0.4,0,1.1-0.1,1.5
			c-0.3,1.7-1.4,2.7-3,3.3c-0.5,0.2-1,0.2-1.5,0.2C255.8,35,251.5,35,247.5,35z M243,23.3L243,23.3c0,0.8,0,1.5,0,2.2s0,1.5,0,2.2
			c0,1.4,1.2,2.4,2.4,2.4c1.3,0,2.7,0,4.1,0c0.8,0,1.5-0.3,1.9-1.1c0.4-0.6,0.4-1.2,0.4-1.8c0-2.6,0-5,0-7.5c0-0.3,0-0.8,0-1.1
			c-0.1-0.8-0.6-1.3-1.3-1.8c-0.5-0.3-1.1-0.3-1.5-0.3c-1.1,0-2,0-3,0c-0.3,0-0.6,0-0.9,0c-0.6,0.1-1,0.3-1.3,0.8
			c-0.3,0.3-0.5,0.6-0.6,0.9c0,0.2,0,0.3,0,0.3C243,20.4,243,21.8,243,23.3z"/>
		<path class="st0" d="M316.2,12.2c0.1,0,0.3,0,0.5,0c10.6,0,21.4,0,32.1,0c0.2,0,0.2,0,0.3,0c0,1.7,0,3.1,0,4.6
			c-6.8,0-13.3,0-20.1,0c0,1.3,0,2.8,0,4.2c6.8,0,13.3,0,20.1,0c0,1.5,0,3,0,4.5l0,0c-0.3,0-0.6,0-0.9,0c-6.3,0-12.5,0-18.8,0
			c-0.2,0-0.2,0-0.3,0c0,1.5,0,3,0,4.5c6.8,0,13.5,0,20.2,0c0,1.5,0,3.2,0,4.7l0,0c-0.3,0-0.6,0-0.9,0c-10.5,0-20.9,0-31.4,0
			c-0.3,0-0.4,0-0.6,0l0,0l0,0c0,0,0,0,0-0.2s0-0.2,0-0.3C316.2,27,316.2,19.7,316.2,12.2L316.2,12.2z"/>
		<path class="st0" d="M211,30.2c5.2,0,10.5,0,15.6,0c0,1.5,0,3.1,0,4.6c-0.3,0.2-33.2,0.2-33.5,0c0,0,0-0.2,0-0.3
			c0-1.5,0-2.9,0-4.4c0-0.3,0.2-0.4,0.3-0.6c0.9-0.8,2-1.6,2.9-2.4c4-3.4,8.1-6.9,12.1-10.2c0.2,0,0.2-0.2,0.2-0.2l0,0l0,0l0,0l0,0
			c-4.8,0-9.6,0-14.4,0l0,0l0,0l0,0c0-1.5,0-3,0-4.5c10.8,0,21.5,0,32.2,0v0.2c0,1.5,0,3,0,4.6c0,0.3-0.1,0.4-0.3,0.4
			c-2.7,2.2-5.4,4.5-8,6.8c-2.2,1.9-4.5,3.8-6.8,5.7C211.2,30,211.2,30,211,30.2L211,30.2z"/>
		<path class="st0" d="M103.4,35c-0.3,0-0.5,0-0.6,0c-4.4,0-8.9,0-13.2,0c-0.3,0-0.4-0.2-0.4-0.3c-0.5-0.8-0.8-1.7-1.2-2.4
			c-0.1-0.2-0.1-0.3-0.4-0.3c-0.2,0-0.4,0-0.6,0c-4.5,0-9.2,0-13.7,0l0,0c-0.3,0-0.4,0-0.6,0c-0.2,0.1-0.3,0.3-0.3,0.6
			c-0.3,0.8-0.8,1.3-1.1,2.1c-0.1,0.2-0.1,0.3-0.3,0.3c-1.6,0-3.1,0-4.8,0c-0.1,0-0.1,0-0.3,0v-0.1c1.6-3,3.3-6,4.9-9
			c0.4-0.8,0.8-1.5,1.2-2.1c0.3-0.8,0.8-1.4,1.1-2.1c0.2-0.3,0.3-0.6,0.6-0.9c0,0,0-0.2,0.2-0.2c0.3-0.5,0.4-0.9,0.8-1.3
			c0.2-0.2,0.2-0.3,0.2-0.5c0.3-0.5,0.4-0.9,0.8-1.4c0.1-0.3,0.3-0.6,0.4-0.9c0.3-0.6,0.8-1.3,1.1-2c0.3-0.6,0.8-1.3,1-1.9
			c0-0.2,0.2-0.3,0.2-0.5c0.1,0,0.3,0,0.4,0c4.5,0,8.9,0,13.4,0h0.1c0.1,0,0.3,0,0.4,0.3c0.6,1.3,1.4,2.5,1.9,3.8
			c0.5,1,1.1,2.1,1.5,3.1c2.1,4.2,4.2,8.4,6.5,12.6c0.4,0.9,0.9,1.8,1.3,2.7C103.4,34.7,103.4,34.8,103.4,35z M85.5,27.5
			c-1.8-3.4-3.4-6.9-5.1-10.3c-0.6,1.2-1.2,2.4-1.8,3.4c-0.6,1.2-1.2,2.2-1.8,3.5c-0.6,1.2-1.2,2.2-1.8,3.4
			C78.4,27.5,81.9,27.5,85.5,27.5z"/>
		<path class="st0" d="M165.9,12.2c4.4,0,8.7,0,13.1,0c0.1,0,0.1,0,0.3,0c0.2,0,0.3,0,0.3,0.3c0.4,0.9,0.9,1.7,1.2,2.6
			c3.3,6.4,6.5,12.9,9.8,19.4c0.2,0.2,0.2,0.4,0.3,0.6c-0.3,0-0.5,0-0.8,0c-4.2,0-8.2,0-12.5,0c-0.1,0-0.4,0-0.6,0
			c-0.3,0-0.4-0.2-0.4-0.3c-0.4-0.8-0.8-1.7-1.2-2.4c-0.2-0.2-0.2-0.3-0.5-0.3c-0.5,0-0.8,0-1.2,0c-4.3,0-8.7,0-13,0
			c-0.1,0-0.3,0-0.6,0c-0.1,0-0.3,0-0.4,0.1c-0.5,0.8-0.8,1.5-1.2,2.2c-0.1,0.2-0.1,0.3-0.3,0.5c-1.8,0-3.5,0-5.2,0v-0.2
			c1.5-2.7,2.8-5.2,4.3-7.9c2.6-4.8,5.2-9.6,7.8-14.4c0.1-0.2,0.1-0.3,0.4-0.3C165.8,12.3,165.8,12.3,165.9,12.2z M173,27.5
			c0-0.1-0.2-0.1-0.2-0.3c-1.5-3.1-3.1-6.1-4.6-9.3c-0.1-0.3-0.3-0.5-0.4-0.8c-1.8,3.5-3.6,6.9-5.6,10.2
			C165.9,27.5,169.4,27.5,173,27.5z"/>
		<path class="st1" d="M165.9,12.2c-0.1,0.2-0.1,0.2-0.3,0C165.8,12.2,165.8,12.2,165.9,12.2z"/>
		<path class="st1" d="M310.3,35l0.2-0.2C310.5,34.8,310.5,35,310.3,35z"/>
		<path class="st1" d="M137.9,20.4L137.9,20.4c0.1-0.2,0.1,0,0.1,0C137.9,20.4,137.9,20.4,137.9,20.4z"/>
		<path class="st1" d="M275,23.3L275,23.3L275,23.3L275,23.3z"/>
		<path class="st1" d="M349,35C349,34.8,349,34.8,349,35C349,34.8,349,34.8,349,35z"/>
		<path class="st1" d="M211,30.2L211,30.2L211,30.2z"/>
		<path class="st1" d="M348.9,25.7C348.9,25.7,349,25.7,348.9,25.7C349,25.7,348.9,25.7,348.9,25.7z"/>
		<path class="st1" d="M316.2,12.2L316.2,12.2L316.2,12.2z"/>
		<path class="st1" d="M297.9,12.2L297.9,12.2L297.9,12.2z"/>
		<path class="st1" d="M105.8,12.2L105.8,12.2L105.8,12.2L105.8,12.2L105.8,12.2z"/>
		<path class="st2" d="M30.9,18c0-2,0-4,0-6c0-1.2,0-2.4,0-3.6c0-0.2,0-0.3,0-0.3c3.4,0,6.8,0,10.2,0c0,0.1,0,0.1,0,0.3
			c0,1.3,0,2.7,0,4.1c0,0,0,0,0,0.2c0,0.6,0,0.6-0.6,0.6c-1.1,0-2.2,0-3.3,0c-0.1,0-0.3,0-0.3,0c0,3.3,0,6.6,0,9.9
			c0.2,0,0.2,0,0.3,0c1.7,0,3.3,0,5,0h0.2c0.1,0,0.1,0,0.1,0.1v0.2c0,4.5,0,8.9,0,13.4c0,0.3,0,0.4,0,0.8c-0.3,0-5.8,0.1-6.3,0
			c0-1.1,0-2.1,0-3.2c0.9,0,2,0,2.9,0c0-2,0-4.1,0-6c-2.4,0-4.8,0-7.4,0c0-0.3,0-0.6,0-1.1c-1.1,0-2.1,0-3.1,0
			c0.1,0.3,0.4,0.6,0.6,1.1c-1.2,0-2.4,0-3.6,0c0-0.3,0-0.6,0-0.9c-0.3-0.1-7.2-0.1-7.7,0c0,1.7,0,3.3,0,5.1c-0.2,0-0.3,0-0.5,0
			c-2.1,0-4.4,0-6.4,0c-0.1,0-0.3,0-0.4,0c0,0,0,0,0,0.2c0,2,0,3.9,0,5.8h-0.2c-2.2,0-4.5,0-6.8,0c0,0,0,0-0.1,0v-0.1
			c0-0.3,0-0.6,0-0.9c0-0.8,0-1.5,0-2.2c0,0,0-0.2,0.1-0.2c0.9,0,1.6,0,2.6,0c0.3,0,0.3,0,0.3-0.3c0-2.1,0-4.4,0-6.5
			c0-0.2,0-0.3,0-0.4c1.9,0,3.9,0,5.8,0v-0.2c0-2.6,0-5.1,0-7.8c-0.6,0-1,0-1.6,0c0,0,0,0-0.1,0l0,0l0,0c0,0.1,0,0.3,0,0.5
			c0,1.9,0,4.1,0,6c0,0,0,0,0,0.1c-0.3,0-3.8,0.2-4.2,0c0-0.1,0-0.1,0-0.3c0-2.4,0-5,0-7.3c0-0.2,0-0.5,0-0.8c0,0,0.1,0,0.3,0
			c4,0,8.1,0,12,0c0.2,0,0.5,0,0.6,0s0.1,0,0.1-0.2c0-0.1,0-0.1,0-0.3c0-2.6,0-5,0-7.5c0.1-0.1,0.1-0.3,0.1-0.6c-0.2,0-0.3,0-0.3,0
			c-0.9,0-1.7,0-2.5,0c-0.2,0-0.3,0-0.5,0V9.5c0-0.3,0-0.4,0-0.8c0.1,0,0.3,0,0.3,0c0.9,0,1.8,0,2.7,0c0.3,0,0.3,0,0.3-0.3
			c0-0.3,0-0.3-0.3-0.5c-0.2,0-0.3,0-0.6,0c0-0.1,0-0.1,0-0.3c0-0.6,0-1.3,0-1.9c0-0.2,0-0.3,0.2-0.5c0.3-0.2,0.4-0.5,0.7-0.6
			c0.2,0,0.2-0.2,0.3-0.2c0.8,0,1.4,0,2.1,0l0,0c0.1,0,0.8,0.6,0.8,0.9c0,0.6,0,1.2,0,1.8c0,0.1,0,0.3-0.2,0.3l-0.1,0.1
			C22.2,8,21.9,8.1,21.6,8h-0.2c0,0.1,0,0.5,0,0.6c1.2,0,2.5,0,3.8,0c0-2.4,0-4.8,0-7.2c0.1,0,0.1,0.1,0.1,0.1
			c0.9,0.9,1.7,1.6,2.2,2.7c0.9,1.4,1.4,2.5,1.5,3.9c0,0.2,0,0.3,0,0.6c0.5,0,1.1,0,1.5,0v0.1c-0.4,0.3-0.9,0.8-1.5,0.9
			c-0.1,3-1.8,5.1-3.9,7c0-2.4,0-4.7,0-7.1c-1.1,0-2.2,0-3.3,0c0,0,0,0,0,0.1c0.4,0.6,1,1.2,1.5,1.8c-0.2,0.2-0.3,0.3-0.5,0.5
			s-0.3,0.3-0.3,0.6c0,1.3,0,2.7,0,3.9c0,0.2,0,0.2,0,0.3c1.6,0,3.1,0,4.8,0c0,0.3,0,0.8,0,1.2c0.4,0,0.8,0,1.1,0s0.8,0,1.1,0
			C30.2,18,30.4,18,30.9,18L30.9,18z M25.8,3.3L25.8,3.3c-0.1,1.8-0.1,3.4-0.1,5.3v0.1c0.9,0,1.6,0,2.5,0c0-0.1,0-0.3,0-0.3
			c-0.1-1.1-0.4-2.1-1-3.2C26.8,4.5,26.2,3.9,25.8,3.3z M28.3,9.8c-0.3,0-2.2-0.2-2.5,0c0,0,0,0.1,0,0.3c0,1.6,0,3.4,0,5.1l0,0l0,0
			C27.2,13.5,28.1,11.7,28.3,9.8z"/>
		<path class="st2" d="M11.1,43.2c0.1-0.2,0.1-0.2,0.3-0.3c0.3-0.5,0.8-0.9,1.1-1.4c0-0.1,0.1-0.1,0.3-0.1c0.6,0,1.2,0,2,0
			c0.1,0.3,0.1,3.1,0,3.8c-0.8,0-1.4,0-2.1,0c0-0.5,0-0.9,0-1.5l0,0c0,0.1-0.1,0.1-0.1,0.3c-0.3,0.3-0.6,0.8-0.8,1.1
			c-0.2,0.1-0.2,0.1-0.5,0.1c-0.5,0-0.8,0-1.2,0c-0.1,0-0.3,0-0.4-0.3c-0.3-0.6-0.6-1.2-1.1-1.7c0,0.3,0,0.6,0,0.9c0,0.3,0,0.6,0,1
			c-0.3,0-0.6,0-1,0c0-1.2,0-2.4,0-3.6c0.1,0,0.1,0,0.3,0c0.7,0,1.3,0,2.1,0c0.1,0,0.3,0,0.5,0.2C10.5,42.2,10.8,42.6,11.1,43.2z"/>
		<path class="st2" d="M37.7,43.4c0-0.6,0-1.2,0-2c0.8,0,1.3,0,2.1,0c0,1.2,0,2.4,0,3.8c-0.2,0-0.2,0-0.3,0c-0.8,0-1.5,0-2.2,0
			c-0.4,0-0.9-0.1-1.2-0.4c-0.6-0.5-1.2-0.9-1.8-1.3c-0.1,0.3,0,0.6,0,0.9c0,0.3,0,0.6,0,0.9c-0.3,0-0.6,0-1,0c0-1.2,0-2.4,0-3.8
			c0.2,0,0.2,0,0.3,0c0.5,0,0.9,0,1.4,0c0.1,0,0.3,0,0.4,0.2C36,42.2,36.8,42.8,37.7,43.4L37.7,43.4z"/>
		<path class="st2" d="M27.6,44.9c-0.1-0.2-0.1-0.3-0.1-0.6c0-0.8,0-1.5,0-2.1c0-0.4,0.3-0.8,0.8-0.8c1.4,0,2.6,0,3.9,0
			c0.5,0,0.8,0.3,0.8,0.8c0,0.8,0,1.4,0,2.1c0,0.4-0.3,0.8-0.8,0.8c-0.1,0-0.3,0-0.3,0c-1.2,0-2.2,0-3.5,0c-0.1,0-0.3,0-0.4,0l0,0
			C27.8,45,27.6,45,27.6,44.9C27.6,45,27.6,45,27.6,44.9z M30.6,43.2L30.6,43.2c0-0.2,0-0.4,0-0.6c0-0.3-0.1-0.5-0.4-0.5
			c-0.5,0-0.8,0-0.8,0.3l0,0c0,0.4,0,0.9,0,1.3c0,0.3,0.1,0.3,0.3,0.3c0.2,0,0.3,0,0.5,0c0.3,0,0.3-0.2,0.3-0.3
			C30.6,43.7,30.6,43.5,30.6,43.2z"/>
		<path class="st2" d="M45.8,41.4c0,0.3,0,0.5,0,0.8c-0.6,0-1.1,0-1.7,0s-1,0-1.7,0c0,0.2,0,0.3,0,0.6c1.1,0,2.1,0,3.3,0
			c0,0.3,0,0.6,0,0.9c-1.1,0-2.2,0-3.3,0c0,0.2,0,0.5,0,0.6c1.1,0,2.2,0,3.3,0c0,0.3,0,0.6,0,0.9c-1.8,0-3.6,0-5.4,0
			c0-1.2,0-2.4,0-3.8C42.2,41.4,43.9,41.4,45.8,41.4z"/>
		<path class="st2" d="M21.6,42c0-0.2,0-0.5,0-0.6c0.3-0.1,4.7-0.1,5.4,0c0.2,0.3,0,0.5,0,0.8c0,0.2-0.2,0.2-0.2,0.3
			c-0.6,0.6-1.2,1-1.8,1.7c-0.2,0-0.2,0.1-0.3,0.3c0.8,0,1.5,0,2.2,0c0,0.3,0,0.6,0,0.8c-0.3,0.2-4.5,0.2-5.5,0c0-0.3,0-0.6,0-0.8
			l0.2-0.2c0.6-0.4,1-0.9,1.6-1.5c0.2-0.1,0.3-0.1,0.5-0.3c-0.1,0-0.1,0-0.3,0c-0.6,0-1.1,0-1.7,0C21.8,42.3,21.6,42.2,21.6,42
			C21.6,42.2,21.6,42.2,21.6,42z"/>
		<path class="st2" d="M4.5,44.7c-0.8,0-1.5,0-2.2,0c-0.2,0-0.2,0-0.3,0.2c0,0.2-0.1,0.2-0.1,0.3c-0.3,0-0.8,0-1.1,0
			c0.5-0.8,0.9-1.5,1.4-2.2c0.3-0.4,0.4-0.9,0.8-1.2c0,0,0.1-0.2,0.3-0.2c0.8,0,1.5,0,2.2,0c0.6,1,1.2,2.2,1.8,3.6
			c-0.9,0-1.7,0-2.4,0C4.6,45,4.6,44.9,4.5,44.7C4.6,44.7,4.5,44.7,4.5,44.7z M4.1,43.8c-0.2-0.4-0.5-0.9-0.6-1.5
			c-0.3,0.5-0.6,0.9-0.9,1.5C3.1,43.8,3.6,43.8,4.1,43.8z"/>
		<path class="st2" d="M21.3,45.2c-0.9,0-1.6,0-2.4,0c0-0.1-0.2-0.3-0.2-0.4c-0.8,0-1.6,0-2.5,0v0.2c-0.1,0.1-0.3,0.3-0.5,0.3
			c-0.1,0-0.4,0-0.8,0c0-0.2,0-0.2,0.2-0.3c0.4-0.9,1-1.7,1.5-2.6c0.1-0.3,0.3-0.4,0.4-0.8c0-0.2,0.2-0.2,0.3-0.2c0.8,0,1.5,0,2.2,0
			C20.1,42.6,20.7,43.8,21.3,45.2z M18.2,43.8L18.2,43.8L18.2,43.8L18.2,43.8c0-0.3-0.5-1.2-0.6-1.3c-0.3,0.5-0.5,0.9-0.8,1.3
			C17.2,43.8,17.7,43.8,18.2,43.8z"/>
		<path class="st1" d="M3.6,38.3L3.6,38.3C3.4,38.4,3.4,38.4,3.6,38.3z"/>
		<path class="st1" d="M16,9.5v0.1C16,9.6,16,9.6,16,9.5z"/>
		<path class="st1" d="M3.6,35C3.6,35.1,3.6,35.1,3.6,35C3.4,35.1,3.4,35.1,3.6,35L3.6,35z"/>
		<path class="st1" d="M30.8,8.9C30.8,8.9,30.8,8.7,30.8,8.9C30.8,8.7,30.8,8.7,30.8,8.9L30.8,8.9z"/>
		<path class="st1" d="M4.5,44.7C4.5,44.7,4.6,44.7,4.5,44.7C4.6,44.7,4.5,44.7,4.5,44.7z"/>
		<path class="st1" d="M10.6,32.5C10.6,32.5,10.6,32.4,10.6,32.5C10.6,32.4,10.6,32.5,10.6,32.5z"/>
		<path class="st1" d="M10.6,20L10.6,20L10.6,20L10.6,20z"/>
		<path class="st1" d="M30.9,18L30.9,18L30.9,18z"/>
		<path class="st1" d="M21.6,42C21.6,42.2,21.6,42.2,21.6,42C21.6,42.2,21.6,42.2,21.6,42z"/>
		<path class="st1" d="M22,9.8L22,9.8L22,9.8z"/>
		<path class="st1" d="M37.7,43.4L37.7,43.4L37.7,43.4z"/>
		<path class="st1" d="M27.6,44.9C27.6,45,27.6,45,27.6,44.9C27.6,45,27.6,45,27.6,44.9z"/>
		<path class="st1" d="M27.8,45C27.8,45,27.8,45.2,27.8,45C27.8,45.2,27.8,45,27.8,45z"/>
		<path class="st0" d="M25.8,3.3c0.4,0.6,1.1,1.3,1.5,1.9c0.6,0.9,0.9,1.9,1.1,3.2c0,0.1,0,0.1,0,0.3c-0.9,0-1.7,0-2.6,0V8.6
			C25.7,6.8,25.7,5,25.8,3.3L25.8,3.3z"/>
		<path class="st0" d="M28.3,9.8c-0.3,2.1-1,3.9-2.5,5.4l0,0l0,0c0-1.7,0-3.5,0-5.1c0-0.1,0-0.1,0-0.3C26.1,9.6,28.1,9.6,28.3,9.8z"
			/>
		<path class="st1" d="M25.8,3.3L25.8,3.3L25.8,3.3z"/>
		<path class="st0" d="M30.6,43.2c0,0.2,0,0.5,0,0.6c0,0.3-0.1,0.3-0.3,0.3c-0.2,0-0.3,0-0.5,0c-0.3,0-0.3-0.2-0.3-0.3
			c0-0.4,0-0.9,0-1.3l0,0c0.1-0.3,0.3-0.3,0.8-0.3c0.3,0,0.4,0.1,0.4,0.4C30.6,42.9,30.6,43,30.6,43.2L30.6,43.2z"/>
		<path class="st0" d="M4.1,43.8c-0.5,0-0.9,0-1.5,0c0.3-0.4,0.6-0.9,0.9-1.5C3.6,42.9,3.9,43.4,4.1,43.8z"/>
		<path class="st0" d="M18.2,43.8c-0.5,0-0.9,0-1.5,0c0.3-0.4,0.6-0.9,0.8-1.3C17.7,42.6,18.2,43.5,18.2,43.8L18.2,43.8z"/>
		<path class="st1" d="M18.2,43.8L18.2,43.8L18.2,43.8L18.2,43.8L18.2,43.8z"/>
	</g>
</g>
</svg>
