<svg xmlns="http://www.w3.org/2000/svg" xmlns:xlink="http://www.w3.org/1999/xlink" id="Ebene_1" x="0px" y="0px" width="394px" height="129px" viewBox="0 0 394 129" style="enable-background:new 0 0 394 129;" xml:space="preserve"><g>	<defs>		<path id="SVGID_1_" d="M29.4,56.8c-0.6-0.6-1-1.5-1-2.4c0-0.9,0.4-1.8,1-2.4c0.6-0.6,1.5-1,2.4-1c0.9,0,1.8,0.4,2.4,1   c0.6,0.6,1,1.5,1,2.4c0,0.9-0.4,1.8-1,2.4c-0.6,0.6-1.5,1-2.4,1C30.9,57.8,30,57.4,29.4,56.8 M62.6,35.2c-0.6-0.6-1-1.5-1-2.4   c0-1,0.4-1.8,1-2.4c0.6-0.6,1.5-1,2.4-1s1.8,0.4,2.4,1c0.6,0.6,1,1.5,1,2.4c0,0.9-0.4,1.8-1,2.4c-0.6,0.6-1.5,1-2.4,1   S63.3,35.8,62.6,35.2 M77,0C61,0.5,47,4.1,35.4,10.1c-9,4.7-16.5,10.8-22.2,18.2C7.5,35.7,3.5,44.3,1.5,54   c-3.8,18.2-0.4,40,11.9,63.6l5.9,11.4h0.1l-0.7-12.8c-0.6-10.2,1-22.7,3.9-34.1c1.9-7.7,4.5-14.7,7.3-19.9c0.6,0.1,1.3,0.2,2,0.2   c2.2,0,4.2-0.9,5.7-2.4c1.5-1.5,2.4-3.5,2.4-5.7c0-2.2-0.9-4.2-2.4-5.7c-1.5-1.5-3.5-2.4-5.7-2.4c-2.2,0-4.2,0.9-5.7,2.4   c-1.5,1.5-2.3,3.5-2.3,5.7c0,1.7,0.5,3.3,1.5,4.6c-3.2,5.8-6,13.5-8.1,21.7c-1.9,7.6-3.3,15.7-3.8,23.3C5.8,85.9,4,69.3,6.9,55.1   c1.8-8.8,5.5-16.6,10.7-23.4C22.9,24.9,29.7,19.3,38,15C54.7,6.4,77,3.2,103.2,7.3c-10.7,7.5-14.8,21.9-19.1,37.2   C77.4,68,70,93.9,35.5,97.3c3.1-12.9,6.8-24.2,11.6-34.1c4.1-8.5,9-16.1,15.1-22.9c0.9,0.4,1.9,0.5,2.9,0.5c2.2,0,4.2-0.9,5.7-2.4   c1.5-1.5,2.4-3.5,2.4-5.7c0-2.2-0.9-4.2-2.4-5.7c-1.5-1.5-3.5-2.4-5.7-2.4c-2.2,0-4.2,0.9-5.7,2.4c-1.5,1.5-2.4,3.5-2.4,5.7   c0,1.4,0.4,2.7,1,3.8c-6.4,7.2-11.6,15.2-16,24.1c-5.4,11.3-9.5,24.1-12.8,38.9l-0.8,3.6l3.7-0.2c41.7-1.9,50-30.9,57.4-57.1   c4.9-17.2,9.4-33,23.4-37.4l10.1-3.1V5.4l-10.3-2.1c-9.3-1.9-18.3-3-26.7-3.3H77z"></path>	</defs>	<linearGradient id="SVGID_2_" gradientUnits="userSpaceOnUse" x1="-9.094947e-13" y1="64.4995" x2="122.8868" y2="64.4995">		<stop offset="0" style="stop-color:#8EBE22"></stop>		<stop offset="1" style="stop-color:#E8CD00"></stop>	</linearGradient>	<use xlink:href="#SVGID_1_" style="overflow:visible;fill:url(#SVGID_2_);"></use>	<clipPath id="SVGID_3_">		<use xlink:href="#SVGID_1_" style="overflow:visible;"></use>	</clipPath></g><g>	<path d="M374.4,44.9l7.9,14.6l0.1,0.5v11h3.5V60l0.1-0.5l7.9-14.6h-4l-4.9,9.3l-1,1.8l-1-1.8l-4.9-9.3H374.4z M358.1,44.9v26.3h4.6  H373v-3.5h-10.3h-1.1v-1.1v-5.7v-1.1h1.1h7.4v-3.5h-7.4h-1.1v-1.1v-5.7v-1.1h1.1H373v-3.5H358.1z M340.8,44.9v26.2h14.9v-3.4h-10.3  h-1.1v-1.1V44.9H340.8z M323.4,44.9v26.2h14.9v-3.4H328h-1.1v-1.1V44.9H323.4z M305.5,64c0.7-1.6,1.4-3.4,2.1-5.3  c0.7-1.9,1.4-3.7,2.2-5.3c0.7,1.7,1.4,3.4,2.1,5.3c0.7,1.9,1.4,3.7,2.1,5.3h-4.3H305.5z M309.7,44.7l-11.2,26.4h3.7l1.9-4.3h5.6  h5.6l1.9,4.3h3.7L309.7,44.7z M304.1,44.9h-3.7l-7.5,18l-7.5-18h-1.8h-1.8L293,71.3L304.1,44.9z M250.2,44.9v26.2h3.5V60.8v-1.1  h1.1h9.5h1.1v1.1v10.3h3.5V44.9h-3.5v10.3v1.1h-1.1h-9.5h-1.1v-1.1V44.9H250.2z M237.7,44.8c-1.3,0.1-2.5,0.4-3.7,0.9  c-1.5,0.6-3,1.6-4.3,2.9c-1.3,1.3-2.3,2.8-2.9,4.3c-0.6,1.5-1,3.2-1,5.1c0,1.9,0.3,3.6,1,5.1c0.6,1.6,1.6,3,2.9,4.3  c1.3,1.3,2.7,2.3,4.3,2.9c1.6,0.6,3.3,1,5.1,1c0.9,0,1.8-0.1,2.7-0.3c0.8-0.2,1.6-0.4,2.5-0.8c0.8-0.3,1.5-0.7,2.3-1.2  c0.4-0.3,0.8-0.6,1.2-0.9l-2.5-2.5c-0.7,0.6-1.5,1-2.3,1.4c-1.2,0.5-2.4,0.7-3.7,0.7c-1.3,0-2.6-0.2-3.7-0.7  c-1.2-0.5-2.2-1.2-3.1-2.1c-0.9-0.9-1.7-2-2.1-3.1c-0.5-1.1-0.7-2.4-0.7-3.7c0-1.3,0.2-2.6,0.7-3.7h0c0.5-1.2,1.2-2.2,2.1-3.2  c0.9-0.9,2-1.6,3.1-2.1c1.2-0.5,2.4-0.7,3.7-0.7c1.3,0,2.6,0.2,3.7,0.7c0.8,0.4,1.6,0.8,2.3,1.4l2.5-2.5c-0.4-0.3-0.7-0.6-1.2-0.9  c-0.7-0.5-1.5-0.9-2.3-1.2c-0.8-0.4-1.6-0.6-2.5-0.8c-0.9-0.2-1.8-0.2-2.7-0.2H237.7z M209.6,44.9v26.3h4.6h10.3v-3.5h-10.3h-1.1  v-1.1v-5.7v-1.1h1.1h7.4v-3.5h-7.4h-1.1v-1.1v-5.7v-1.1h1.1h10.3v-3.5H209.6z M195.5,44.9h-5.9v3.5h5.9h1.1v1.1v21.6h3.5V49.5v-1.1  h1.1h5.9v-3.5h-5.9H195.5z M178.6,48.2c1.3,0,2.6,0.2,3.7,0.7c1.2,0.5,2.2,1.2,3.2,2.1c0.9,1,1.6,2,2.1,3.2  c0.5,1.2,0.7,2.4,0.7,3.7c0,1.4-0.2,2.6-0.7,3.7c-0.5,1.1-1.2,2.2-2.1,3.2c-0.9,0.9-2,1.6-3.2,2.1c-1.2,0.5-2.4,0.7-3.7,0.7  c-1.3,0-2.6-0.2-3.7-0.7c-1.2-0.5-2.2-1.2-3.1-2.1c-1-1-1.7-2-2.1-3.2c-0.5-1.1-0.7-2.4-0.7-3.7c0-1.3,0.2-2.6,0.7-3.7  c0.5-1.1,1.2-2.2,2.1-3.2c0.9-0.9,1.9-1.6,3.1-2.1C176.1,48.5,177.3,48.2,178.6,48.2 M178.6,44.7c-1.9,0-3.6,0.3-5.1,1  c-1.5,0.6-3,1.6-4.3,2.9c-1.3,1.3-2.3,2.8-2.9,4.3c-0.6,1.5-1,3.2-1,5.1c0,1.9,0.3,3.6,1,5.1c0.6,1.6,1.6,3,2.9,4.3  c1.3,1.3,2.7,2.3,4.3,2.9c1.6,0.6,3.3,1,5.1,1c1.8,0,3.5-0.3,5.1-1c1.6-0.7,3-1.6,4.3-2.9c1.3-1.3,2.3-2.7,2.9-4.3  c0.7-1.6,1-3.3,1-5.1c0-1.8-0.3-3.5-1-5.1c-0.6-1.5-1.6-3-2.9-4.3c-1.3-1.3-2.8-2.3-4.3-3C182.2,45,180.5,44.7,178.6,44.7   M153,58.4h-0.9l-1.3,0h-1.1v-1.1v-7.8v-1.1h1.1h3.2c0.9,0,1.7,0.1,2.4,0.4c0.8,0.3,1.4,0.6,1.9,1.1v0c0.5,0.6,0.9,1.1,1.1,1.6  c0.2,0.6,0.3,1.2,0.3,1.9c0,0.8-0.1,1.4-0.3,2c-0.2,0.6-0.6,1.2-1.1,1.7c-0.5,0.5-1,0.9-1.5,1.1c-0.5,0.2-1.2,0.4-1.9,0.4l0,0H153z   M146.2,71.1h3.5v-9.2h3.9l6,9.2h4.4l-5.5-8.6l-0.7-1.1l1.2-0.5c0.7-0.3,1.2-0.6,1.6-0.8c0.4-0.3,0.8-0.8,1.3-1.4  c0.5-0.8,0.9-1.5,1.2-2.3c0.3-0.8,0.4-1.6,0.4-2.5v-0.7c0-1.2-0.2-2.2-0.6-3.1c-0.4-0.8-1-1.7-1.9-2.6c-0.9-0.8-1.9-1.4-3-1.9  c-1.2-0.5-2.4-0.7-3.7-0.7h-8.2L146.2,71.1z M129.7,44.7c-1.6,0.1-3,0.4-4.3,1c-1.6,0.7-3,1.6-4.3,2.9c-1.3,1.3-2.3,2.8-2.9,4.3  c-0.6,1.6-1,3.3-1,5.1c0,1.9,0.3,3.6,1,5.1c0.6,1.5,1.6,3,2.9,4.3c1.3,1.3,2.7,2.3,4.3,2.9c1.5,0.6,3.2,1,5.1,1  c1.9,0,3.5-0.3,5.1-1c1.5-0.6,3-1.6,4.3-2.9c1.4-1.4,2.5-3,3.1-4.9c0.6-1.6,0.8-3.3,0.8-5.2h-12.1h-0.3v3.3h7h1.7l-0.7,1.6  c-0.4,0.7-0.8,1.4-1.3,2.1c-0.5,0.6-1.1,1.2-1.8,1.7c-0.9,0.6-1.7,1.1-2.7,1.4c-1,0.3-2,0.5-3,0.5c-1.3,0-2.6-0.2-3.7-0.7  c-1.2-0.5-2.2-1.2-3.2-2.1c-0.9-1-1.7-2-2.1-3.1c-0.5-1.2-0.7-2.4-0.7-3.7c0-1.3,0.2-2.5,0.7-3.7c0.5-1.1,1.2-2.2,2.1-3.1  c1-1,2-1.7,3.2-2.1c1.1-0.5,2.4-0.7,3.7-0.7c1.3,0,2.6,0.2,3.7,0.7c0.8,0.4,1.6,0.8,2.3,1.4l2.5-2.5c-0.4-0.4-0.8-0.6-1.2-0.9  c-0.7-0.5-1.5-0.9-2.3-1.2c-0.8-0.3-1.6-0.6-2.5-0.8c-0.8-0.2-1.7-0.3-2.7-0.3L129.7,44.7L129.7,44.7z M102.2,64  c0.7-1.6,1.4-3.4,2.1-5.3c0.7-1.9,1.4-3.7,2.2-5.3c0.7,1.7,1.4,3.4,2.1,5.3c0.7,1.9,1.4,3.7,2.1,5.3h-4.3H102.2z M106.5,44.7  L95.2,71.1H99l1.9-4.3h5.6h5.6l1.9,4.3h3.7L106.5,44.7z"></path></g></svg>