<?xml version="1.0" encoding="utf-8"?>
<!-- Generator: Adobe Illustrator 27.4.0, SVG Export Plug-In . SVG Version: 6.00 Build 0)  -->
<svg version="1.1" id="Ebene_1" xmlns="http://www.w3.org/2000/svg" xmlns:xlink="http://www.w3.org/1999/xlink" x="0px" y="0px"
	 viewBox="0 0 433 96.4" style="enable-background:new 0 0 433 96.4;" xml:space="preserve">
<style type="text/css">
	.st0{fill:#E20015;}
	.st1{fill:#575757;}
</style>
<g>
	<g>
		<g>
			<path class="st0" d="M185.2,46.9c0,0,8.8-3,8.8-13c0-11.7-8.3-17.5-19.7-17.5h-29.9V80h32.5c10,0,19.8-7,19.8-17.7
				C196.7,49.6,185.2,47,185.2,46.9z M160,29.6h11.6c3.6,0,6,2.4,6,6c0,2.8-2.2,5.8-6.3,5.8h-11.4L160,29.6L160,29.6z M171.7,66.7
				h-11.6V54.2h11.3c5.7,0,8.4,2.5,8.4,6.2C179.8,65,176.4,66.7,171.7,66.7z"/>
			<path class="st0" d="M231.1,14.8c-18.4,0-29.2,14.7-29.2,33.3c0,18.7,10.8,33.3,29.2,33.3c18.5,0,29.2-14.6,29.2-33.3
				C260.3,29.5,249.6,14.8,231.1,14.8z M231.1,66.2c-9,0-13.5-8.1-13.5-18.1s4.5-18,13.5-18s13.6,8.1,13.6,18
				C244.7,58.1,240.1,66.2,231.1,66.2z"/>
			<path class="st0" d="M294.2,41.3l-2.2-0.5c-5.4-1.1-9.7-2.5-9.7-6.4c0-4.2,4.1-5.9,7.7-5.9c5.3,0,10,2.6,13,5.9l9.9-9.8
				c-4.5-5.1-11.8-10-23.2-10c-13.4,0-23.5,7.5-23.5,20c0,11.4,8.2,17,18.2,19.1l2.2,0.5c8.3,1.7,11.4,3,11.4,7
				c0,3.8-3.4,6.3-8.6,6.3c-6.2,0-11.8-2.7-16.1-8.2l-10.1,10c5.6,6.7,12.7,11.9,26.4,11.9c11.9,0,24.6-6.8,24.6-20.7
				C314.3,46,303.3,43.2,294.2,41.3z"/>
			<path class="st0" d="M349.7,66.2c-7,0-14.3-5.8-14.3-18.5c0-11.3,6.8-17.6,13.9-17.6c5.6,0,8.9,2.6,11.5,7.1l12.8-8.5
				c-6.4-9.7-14-13.8-24.5-13.8c-19.2,0-29.6,14.9-29.6,32.9c0,18.9,11.5,33.7,29.4,33.7c12.6,0,18.6-4.4,25.1-13.8L361.1,59
				C358.5,63.2,355.7,66.2,349.7,66.2z"/>
			<polygon class="st0" points="416.3,16.3 416.3,39.7 397,39.7 397,16.3 380.3,16.3 380.3,79.9 397,79.9 397,54.8 416.3,54.8 
				416.3,79.9 433,79.9 433,16.3 			"/>
		</g>
	</g>
	<g id="_x38_7_x2F_87_x2F_87__x7C__0_x2F_0_x2F_0">
		<g>
			<path class="st1" d="M48.2,0C21.6,0,0,21.6,0,48.2s21.6,48.2,48.2,48.2s48.2-21.6,48.2-48.2S74.8,0,48.2,0z M48.2,91.9
				c-24.1,0-43.7-19.6-43.7-43.7S24.1,4.5,48.2,4.5s43.7,19.6,43.7,43.7S72.3,91.9,48.2,91.9z"/>
			<path class="st1" d="M68.1,18.1h-3.3v16.5H31.7V18.1h-3.4c-9.7,6.5-16.2,17.5-16.2,30.1s6.5,23.6,16.2,30.1h3.4V61.8h33.1v16.5
				h3.3c9.8-6.5,16.2-17.5,16.2-30.1S77.9,24.6,68.1,18.1z M27.1,71.8c-6.7-5.9-10.6-14.4-10.6-23.6s3.9-17.7,10.6-23.6V71.8z
				 M64.8,57.2H31.7V39.1h33.1C64.8,39.2,64.8,57.2,64.8,57.2z M69.3,71.7v-10l0,0V34.6l0,0v-10c6.6,5.9,10.5,14.4,10.5,23.5
				C79.8,57.3,75.9,65.8,69.3,71.7z"/>
		</g>
	</g>
</g>
</svg>
