<?xml version="1.0" encoding="utf-8"?>
<!-- Generator: Adobe Illustrator 27.4.0, SVG Export Plug-In . SVG Version: 6.00 Build 0)  -->
<svg version="1.1" id="Ebene_1" xmlns="http://www.w3.org/2000/svg" xmlns:xlink="http://www.w3.org/1999/xlink" x="0px" y="0px"
	 viewBox="0 0 472.5 82" style="enable-background:new 0 0 472.5 82;" xml:space="preserve">
<style type="text/css">
	.st0{fill:#B3C516;}
	.st1{fill:#FD0000;}
</style>
<g>
	<g>
		<path class="st0" d="M75.4,82C50.2,82,25.1,82,0,82C0,54.7,0,27.3,0,0c25,0,50.1,0,75.1,0c0.1,0.7,0.2,1.3,0.2,2
			c0,25.5,0,50.9,0,76.4C75.4,79.6,75.4,80.8,75.4,82z"/>
		<path class="st0" d="M101.1,82c-7.8,0-15.7,0-23.5,0c0-0.4-0.1-0.9-0.1-1.3c0-7.3,0-14.6,0-21.9c0-9.6,0-19.2,0-28.7
			c0-8.5,0-17,0-25.5c0-1.5,0-3.1,0-4.6c7.8,0,15.7,0,23.5,0c0,0.6,0.1,1.2,0.1,1.9c0,26.5,0,53,0,79.5
			C101.1,81.6,101.1,81.8,101.1,82z"/>
		<path class="st0" d="M110,0c5.7,0,11.4,0,17.1,0c0,0.3,0.1,0.6,0.1,0.9c0,1.1,0.1,2.1,0.1,3.2c0,24.4,0,48.8,0,73.2
			c0,1.6-0.1,3.1-0.1,4.7c-5.7,0-11.4,0-17.1,0c-0.1-2.1-0.2-4.3-0.2-6.4c0-18.8,0-37.7,0-56.5C109.9,12.7,110,6.3,110,0z"/>
		<path class="st0" d="M142.8,82c0-0.4-0.1-0.9-0.1-1.3c0-26.3,0-52.6,0-78.9c0-0.6,0-1.2,0-1.8c3.8,0,7.6,0,11.4,0
			c0,1.9,0.1,3.7,0.1,5.6c0,25.3,0,50.6,0,75.8c0,0.2,0,0.4,0,0.6C150.3,82,146.5,82,142.8,82z"/>
		<path class="st0" d="M174.5,82c0-0.5,0-1,0-1.6c0-6.5,0-13,0-19.6c0-9.9,0-19.8,0-29.7c0-9.1,0-18.2,0-27.4c0-1.2,0-2.5,0.1-3.7
			l0.1-0.1c2.1,0,4.2,0,6.4,0c0.2,3.8,0.1,7.7,0.1,11.5c0,22.2,0,44.5,0,66.7c0,1.2,0,2.5,0,3.7C178.9,82,176.7,82,174.5,82z"/>
		<path class="st0" d="M206,82c-0.3-1.8-0.1-3.7-0.1-5.6c0-24.9,0-49.7,0-74.6c0-0.4,0-0.8,0-1.2c0-0.2-0.1-0.4-0.1-0.6
			c1.1,0,2.2,0,3.4,0c0.2,1.4,0.1,2.8,0.2,4.2c0,0.5,0,1,0,1.4c0,24,0,48,0,72c0,1.5-0.1,2.9-0.1,4.4C208.2,82,207.1,82,206,82z"/>
		<path class="st0" d="M236.1,82c0-0.7,0-1.4,0-2.1c0-24.7,0-49.5,0-74.2c0-0.8,0.1-1.7,0.1-2.5c0-0.9,0-1.7,0-2.6
			c0-0.2,0-0.4-0.1-0.6c0.6,0,1.2,0,1.9,0c0.5,6.6,0.2,13.2,0.3,19.8c0,18.5,0,37.1,0,55.6c0,2.2-0.1,4.4-0.1,6.6
			C237.5,82,236.8,82,236.1,82z"/>
	</g>
	<g>
		<path class="st1" d="M353.7,24.2c-0.2,0.6-0.2,1.2-0.6,1.7c0,0.1,0,0.2,0,0.3c0,0.2,0,0.4-0.1,0.6c-0.5,1.1-0.6,2.2-0.9,3.4
			c-0.5,2-1,4-1.5,6c-0.1,0.5-0.2,1.1-0.3,1.6c-0.1,0.6-0.3,1.2-0.5,1.8c-0.3,1-0.5,2-0.8,3c-0.1,0.3-0.2,0.5-0.3,0.8
			c0.9,0.1,5.7,0.1,6.1-0.1c0-3.2,0-6.4,0-9.6s0-6.4,0.1-9.6c1.3,0,2.6-0.1,3.8-0.1c4.6,0,9.2,0,13.9,0c0.1,0,0.2,0,0.3,0
			c0.6,0,0.7,0.1,0.7,0.7c0,0.4,0,0.7,0,1.1c0,9.6,0,19.2,0,28.9c0,1.2-0.1,2.5-0.1,3.7c0,0.9,0,1.7,0.1,2.6c0,0.6-0.2,0.9-0.9,0.9
			c-0.6,0-1.1,0-1.7,0c-4.5,0-8.9,0-13.4,0c-0.8,0-1.5,0-2.3,0c-0.2,0-0.4,0-0.6-0.1c0-0.2-0.1-0.5-0.1-0.7c0-2.1,0-4.1,0-6.2
			c0-0.5,0-1.1,0.1-1.6c0-0.7-0.1-0.8-0.8-0.8c-1,0-2,0-2.9,0s-1.9,0-2.8,0c-0.4,0-0.8,0-1.2,0c-0.5,0-0.7,0.2-0.8,0.7
			c-0.1,0.5-0.2,1-0.3,1.4c-0.2,0.8-0.4,1.6-0.6,2.4c-0.3,1.2-0.6,2.4-0.8,3.6c-0.1,0.3-0.2,0.6-0.3,0.9c-0.1,0.2-0.3,0.3-0.6,0.3
			c-0.3,0-0.6,0-0.9,0c-4.5,0-9,0-13.6,0c-1,0-2.1,0-3.1,0c-0.2,0-0.4,0-0.5-0.2l0,0l0,0c0.1-0.4,0.1-0.8,0.2-1.2
			c0.2-1,0.5-1.9,0.8-2.9c0.3-1.3,0.6-2.5,1-3.8c0.4-1.7,0.8-3.4,1.2-5.1c0.5-2,1-4,1.5-6c0.3-0.9,0.4-1.9,0.8-2.8
			c0-1.1,0.5-2.1,0.7-3.2c0.2-1.1,0.5-2.1,0.8-3.2c0.3-1.3,0.6-2.5,0.9-3.8c0.1-0.5,0.3-1.1,0.4-1.6c0.7-2.2,2.3-3.4,4.6-3.8
			c1.3-0.2,2.6-0.2,4-0.2c2.6,0,5.3,0,7.9,0c0.9,0,1.7,0,2.6,0.1C353.3,24,353.5,24.1,353.7,24.2L353.7,24.2z"/>
		<path class="st1" d="M406.8,61.3c0-0.1,0-0.2,0-0.4c0-2.3,0-4.6,0.1-6.9c0-0.4,0-0.9-0.1-1.3c-0.1-0.5-0.2-0.6-0.6-0.5
			c-1.4,0-2.9,0.1-4.3,0.1c-0.9,0-1.7,0-2.6,0c-0.7,0-0.9,0.2-0.9,0.9c0,0.3-0.1,0.5-0.2,0.8c-0.4,1-0.6,2-0.8,3.1
			c-0.2,0.9-0.5,1.7-0.7,2.6c-0.1,0.5-0.2,1-0.4,1.4c-0.1,0.4-0.2,0.5-0.6,0.6c-0.2,0-0.3,0-0.5,0c-5.6,0-11.2,0-16.9-0.1
			c-0.2,0-0.3,0-0.5,0c-0.3-0.1-0.5-0.3-0.4-0.6c0.8-2,1.2-4.2,1.7-6.3c0.7-2.8,1.4-5.7,2.1-8.5c0.4-1.8,0.9-3.5,1.3-5.3
			c0.3-1.3,0.7-2.6,1-3.9c0.3-1,0.4-2.1,0.7-3.1c0.4-1.6,0.9-3.3,1.3-4.9c0.1-0.3,0.2-0.7,0.3-1c0.3-1.1,0.9-1.9,1.7-2.6
			c1-0.9,2.3-1.3,3.5-1.3c3-0.1,6-0.1,8.9-0.1c1.6,0,3.2,0,4.9,0.1c0.2,0,0.4,0.1,0.7,0.1c-0.1,0.5-0.2,0.9-0.3,1.2
			c-0.4,1-0.6,2.1-0.8,3.2c-0.1,0.6-0.4,1.2-0.5,1.8c-0.2,0.8-0.3,1.5-0.5,2.3c-0.2,0.7-0.4,1.4-0.6,2.1c-0.3,1.1-0.5,2.2-0.8,3.3
			c-0.4,1.5-0.8,3-1.2,4.5c-0.1,0.3-0.1,0.6-0.2,0.9c0.5,0.2,5.6,0.2,6.1,0c0-0.4,0-0.9,0-1.3c0-4.3,0-8.6,0-12.9c0-1.2,0-2.5,0-3.7
			c0-0.1,0-0.3,0-0.4c0-0.7,0.1-0.8,0.8-0.8c4.1,0,8.2-0.1,12.4-0.1c1.4,0,2.8,0,4.2,0c0.4,0,0.9,0.1,1.4,0.1c0,0.6,0.1,1.2,0.1,1.8
			c0,3.1-0.1,6.3-0.1,9.4c0,7.9,0,15.7,0,23.6c0,0.7,0,1.3,0.1,2c0,0.7-0.1,0.8-0.8,0.8c-5.8,0-11.6,0-17.4,0
			C407.2,61.7,406.9,61.8,406.8,61.3C406.8,61.4,406.9,61.3,406.8,61.3C406.9,61.3,406.8,61.3,406.8,61.3z"/>
		<path class="st1" d="M470.1,32.8c-0.2,0-0.5,0.1-0.7,0.1c-4.1,0-8.1,0-12.2-0.1c-0.4,0-0.8,0-1.2,0c-0.1,0.5-0.2,1-0.3,1.5
			c-0.4,1.4-0.8,2.8-1.1,4.3c-0.1,0.3-0.4,0.6-0.2,0.9l0,0c0.3,0,0.5,0.1,0.8,0.1c3.8,0,7.7,0,11.5,0.1c0.4,0,0.9,0.1,1.3,0.2
			c1.5,0.3,2.6,2.2,2.2,3.7c-1,3.7-1.9,7.4-2.8,11.2c-0.2,0.9-0.4,1.9-0.6,2.8c-0.4,1.6-1.2,2.8-2.6,3.6c-0.6,0.3-1.2,0.5-1.9,0.6
			c-0.9,0.1-1.8,0.1-2.7,0.1c-9.1,0-18.1,0-27.2,0c-0.7,0-1.5,0-2.2,0c-0.4,0-0.7-0.1-0.8-0.5c0.5-0.8,0.7-1.7,0.9-2.6
			c0.4-1.6,0.7-3.1,1.1-4.7c0.1-0.4,0.1-0.8,0.3-1.2c0.1-0.3,0.3-0.5,0.6-0.5c0.3,0,0.7-0.1,1-0.1c4.2,0,8.4,0,12.6,0
			c0.1,0,0.2,0,0.3,0c0.5,0,0.6-0.1,0.8-0.6c0.4-1.5,0.8-3.1,1.1-4.6c0.2-0.7,0.3-1.3,0.5-2c-0.4-0.2-0.8-0.2-1.2-0.2
			c-2.3,0-4.6,0-6.9,0c-1.1,0-2.2,0-3.2-0.1c-1.7-0.2-2.9-1.7-2.5-3.5c0.3-1.4,0.6-2.8,1-4.2c0.7-3,1.4-6,2.2-8.9
			c0.5-1.8,1.7-3.2,3.7-3.7c1-0.3,2.1-0.4,3.1-0.4c8.9,0,17.7,0,26.6,0c0.3,0,0.5,0,0.8,0c0.5,0.1,0.6,0.2,0.4,0.7
			c-0.2,0.6-0.3,1.2-0.5,1.9c-0.3,1-0.5,2.1-0.8,3.1c-0.2,0.8-0.4,1.7-0.6,2.5C470.5,32.4,470.4,32.6,470.1,32.8
			C470.1,32.8,470.1,32.7,470.1,32.8L470.1,32.8z"/>
		<path class="st1" d="M278,52.2c4.4,0,8.6,0,13,0c0.2,0.5,0,1-0.2,1.4c-0.3,1.1-0.6,2.2-0.9,3.3c-0.3,1.3-0.6,2.6-0.9,4
			c-0.2,0.8-0.4,0.9-1.2,0.9c-1.6,0-3.1,0-4.7,0c-7,0-14.1,0-21.1,0c-0.9,0-1.9,0.1-2.8-0.2c-1.2-0.4-2.5-1.8-2.1-3.4
			c0.3-1.3,0.6-2.5,0.9-3.8c0.4-1.4,0.7-2.9,1.1-4.3c0.5-1.9,1-3.9,1.5-5.8c0.2-1,0.4-2,0.6-2.9c0.3-1.2,0.7-2.4,1-3.6
			c0.6-2.5,1.2-5.1,1.9-7.6c0.2-0.8,0.4-1.6,0.7-2.3c0.7-2,2.1-3.2,4.3-3.5c0.9-0.1,1.9-0.2,2.8-0.2c7.1,0,14.2,0,21.3,0
			c0.4,0,0.7,0.1,1.2,0.1c0,0.3,0,0.4-0.1,0.6c-0.5,1.9-1,3.8-1.5,5.7c-0.2,0.6-0.3,1.2-0.4,1.8c-0.1,0.5-0.4,0.7-0.8,0.8
			c-0.2,0-0.5,0-0.7,0c-2.2,0-4.5-0.1-6.7-0.1c-0.4,0-0.8,0-1.2,0c-0.1,0.4-0.2,0.8-0.3,1.2c-0.5,2.1-1.1,4.2-1.6,6.3
			c-0.2,0.6-0.3,1.3-0.4,1.9c-0.2,0.8-0.5,1.6-0.7,2.5c-0.3,1.6-0.7,3.1-1.1,4.6c-0.1,0.4-0.3,0.8-0.4,1.2
			C278.2,51,278.1,51.6,278,52.2z"/>
		<path class="st1" d="M314.5,52.1c0.3,0.1,0.5,0.2,0.8,0.2c2.3,0,4.6,0,6.9,0c0.3,0,0.6-0.1,0.9-0.1s0.7,0,1.1,0
			c0,0.3,0,0.7-0.1,0.9c-0.5,1.9-1,3.7-1.4,5.5c-0.2,0.7-0.4,1.4-0.4,2.1c0,0.7-0.4,1-1.3,1c-3.5,0-7.1,0-10.6,0
			c-3.9,0-7.9,0-11.8,0c-0.7,0-1.4,0-2.1-0.1c-1.3-0.2-2.9-1.6-2.5-3.5c0.3-1.6,0.8-3.2,1.2-4.8c0.6-2.7,1.3-5.5,1.9-8.2
			c0.5-2.1,1.1-4.3,1.6-6.4c0.4-1.5,0.7-3.1,1.1-4.6c0.6-2.6,1.2-5.2,1.8-7.8c0.1-0.5,0.2-1,0.4-1.6c0.2-0.7,0.2-0.8,1-0.8
			c0.7,0,1.4-0.1,2.1-0.1c5.2,0,10.3,0,15.5,0c0.3,0,0.7,0,1.1,0.2c-0.1,0.5-0.1,1-0.3,1.5c-0.4,0.9-0.5,1.9-0.8,2.8
			c-0.3,0.8-0.3,1.7-0.6,2.5c-0.4,1.1-0.5,2.2-0.8,3.4c-0.3,1-0.6,2-0.8,3.1c-0.2,1.2-0.6,2.4-0.9,3.7c-0.3,1.4-0.6,2.7-1,4.1
			c-0.3,1.3-0.7,2.7-1,4C314.9,50.1,314.7,51.1,314.5,52.1L314.5,52.1L314.5,52.1z"/>
	</g>
</g>
</svg>
