<?xml version="1.0" encoding="utf-8"?>
<!-- Generator: Adobe Illustrator 27.4.0, SVG Export Plug-In . SVG Version: 6.00 Build 0)  -->
<svg version="1.1" id="Ebene_1" xmlns="http://www.w3.org/2000/svg" xmlns:xlink="http://www.w3.org/1999/xlink" x="0px" y="0px"
	 viewBox="0 0 229 65" style="enable-background:new 0 0 229 65;" xml:space="preserve">
<style type="text/css">
	.st0{fill:#BE2B31;}
	.st1{fill:#525C52;}
</style>
<polygon class="st0" points="218.8,64.9 202.4,48.5 210.6,40.4 200.4,40.4 188.1,52.6 200.4,64.9 "/>
<polygon class="st1" points="198.3,24 214.7,40.3 206.5,48.5 216.7,48.5 229,36.3 216.7,24 "/>
<path class="st0" d="M0.4,38.9c-1.7,9.4,1.2,10.6,11.7,10.6c11.5,0,15.3-3.4,17.6-14.6l6.1-28.5H26l-0.8,5.3H25
	c-0.2-4.6-3.1-5.6-7.3-5.6C7.4,6.1,5,11.7,3,21.4c-1.8,8.5-2.3,14.9,8.3,14.9c3.8,0,7.1-1.2,9.2-4.9h0.3l-1.3,6.2
	c-0.9,4.2-1.9,4.8-6.1,4.8c-1.1,0-2.2-0.1-2.9-0.5c-0.8-0.5-1.1-1.4-0.7-3C9.8,38.9,0.4,38.9,0.4,38.9z M16.2,28.8
	c-4.2,0-4.7-1.3-3.4-7.4c1.5-6.9,2.1-7.8,6.7-7.8c4.1,0,5,1,3.5,7.8C21.8,26.5,21,28.8,16.2,28.8"/>
<path class="st0" d="M53.9,36.3h9.8l4-18.6C69.9,7.3,65.9,6.1,55.9,6.1c-7,0-13.7-0.1-15.7,9.2H50c0.6-2.7,2.2-3.2,4.7-3.2
	c4.3,0,4.1,1.8,3.5,4.5l-1,4.7h-0.5C56.3,17.9,52,18,49.2,18c-7,0-11.3,2.2-12.8,9.4c-1.6,7.6,2,9.3,8.8,9.3c3.4,0,8-0.7,9.6-4.8
	h0.3L53.9,36.3z M51.2,23.9c3.2,0,5.3,0.2,4.8,2.7c-0.7,3.1-2,3.6-6.1,3.6c-1.5,0-4.3,0-3.6-3.2C46.9,24.3,48.8,23.9,51.2,23.9"/>
<path class="st0" d="M89.5,19.4h8.8l0.5-2.3c1.2-5.5,1.8-11-5-11c-3.6,0-6.5,1.3-8.5,4.7h-0.4l0.9-4.4h-9.5L70,36.2h9.8l3.8-17.9
	c0.5-2.4,1.7-4.8,4.7-4.8c2.7,0,2.1,2.3,1.6,4.4L89.5,19.4z"/>
<path class="st0" d="M116.5,36.3h9.8l4-18.6c2.2-10.3-1.8-11.5-11.8-11.5c-7,0-13.7-0.1-15.7,9.2h9.8c0.6-2.7,2.2-3.2,4.7-3.2
	c4.3,0,4.1,1.8,3.5,4.5l-1,4.7h-0.5c-0.4-3.4-4.6-3.4-7.4-3.4c-7,0-11.3,2.2-12.8,9.4c-1.6,7.6,2,9.3,8.8,9.3c3.4,0,8-0.7,9.6-4.8
	h0.3L116.5,36.3z M113.7,23.9c3.2,0,5.3,0.2,4.8,2.7c-0.7,3.1-2,3.6-6.1,3.6c-1.5,0-4.3,0-3.6-3.2C109.4,24.3,111.4,23.9,113.7,23.9
	"/>
<path class="st0" d="M139,6.4l-6.3,29.8h9.8l3.5-16.4c0.8-3.6,2.1-6.3,6.4-6.3c3.2,0,3.7,1.4,3.1,4.3l-3.9,18.4h9.8l4.4-20.6
	c1.4-6.4-1-9.6-7.6-9.6c-4.6,0-7.8,1.2-10.2,5.9h-0.4l1.2-5.6H139V6.4z"/>
<path class="st0" d="M195.3,6.4H184l1.3-6.3h-9.8l-1.3,6.3h-3.6l-1.5,7.2h3.6l-3.1,14.7c-1.6,7.5,3.4,8.3,9.7,8.3
	c8,0,11.4-1.8,13.1-9.9L193,24h-7.8l-0.4,1.6c-0.5,2-0.8,3.9-3.4,3.9c-1.8,0-2-0.7-1.7-2.5l2.8-13.4h11.3L195.3,6.4z"/>
<polygon class="st1" points="147.2,57.1 142.1,50.6 147.1,44.6 144.6,44.6 140,50.4 140,44.6 138,44.6 138,57.1 140,57.1 140,51 
	144.6,57.1 "/>
<path class="st1" d="M154.4,52.5c0,2.1-1.1,3.1-2.3,3.1c-1.5,0-2.3-1.1-2.3-3.2c0-2.1,1.2-3,2.4-3C153.7,49.4,154.4,50.5,154.4,52.5
	 M156.4,52.3c0-3.2-1.7-4.6-4.2-4.6c-2.8,0-4.6,2.1-4.6,4.9c0,3.2,1.7,4.7,4.2,4.7C154.6,57.3,156.4,55.2,156.4,52.3"/>
<path class="st1" d="M163.5,57.1v-1.6c-0.4,0.1-0.8,0.1-1.2,0.1c-0.9,0-1.2-0.4-1.2-1.7v-4.4h2.4V48h-2.4v-3.5l-2,0.5v2.9h-1.8v1.5
	h1.8v5c0,2.1,0.6,2.8,2.5,2.8C162.3,57.3,163,57.2,163.5,57.1"/>
<path class="st1" d="M170.6,57.1v-1.6c-0.4,0.1-0.8,0.1-1.2,0.1c-0.9,0-1.2-0.4-1.2-1.7v-4.4h2.4V48h-2.4v-3.5l-2,0.5v2.9h-1.8v1.5
	h1.8v5c0,2.1,0.6,2.8,2.5,2.8C169.4,57.3,170.1,57.2,170.6,57.1"/>
<path class="st1" d="M177.9,51.2H174c0.2-1.2,0.9-2.1,2.1-2.1C177.3,49.2,178,50,177.9,51.2 M179.9,51.7c0-2.2-1.1-4-3.7-4
	c-2.7,0-4.2,2.1-4.2,4.8c0,3.2,1.6,4.7,4.4,4.7c1.1,0,2.3-0.2,3.2-0.6l-0.2-1.6c-0.8,0.4-1.7,0.6-2.7,0.6c-1.8,0-2.8-1-2.7-3.1h5.9
	C179.9,52.3,179.9,52,179.9,51.7"/>
</svg>
