<?xml version="1.0" encoding="utf-8"?>
<!-- Generator: Adobe Illustrator 27.4.0, SVG Export Plug-In . SVG Version: 6.00 Build 0)  -->
<svg version="1.1" id="Ebene_1" xmlns:serif="http://www.serif.com/"
	 xmlns="http://www.w3.org/2000/svg" xmlns:xlink="http://www.w3.org/1999/xlink" x="0px" y="0px" viewBox="0 0 643.9 188.3"
	 style="enable-background:new 0 0 643.9 188.3;" xml:space="preserve">
<style type="text/css">
	.st0{fill:#9F0630;}
	.st1{fill:#FFFFFF;stroke:#FFFFFF;stroke-width:0.8117;stroke-miterlimit:10.8232;}
	.st2{fill:#FBBA00;}
</style>
<rect class="st0" width="643.9" height="188.3"/>
<g transform="matrix(1,0,0,1,-3.41562e-05,0)">
	<g transform="matrix(1,0,0,1,-10.1815,-10.63)">
		<path class="st1" d="M41,129.8c-0.2,1.8,0.2,3.5,1.1,5.1c1.3,1.5,3.2,2.3,5.2,2.2c2.2,0.1,4.4-0.9,5.8-2.7c1-1.5,1.4-3.3,1.2-5.1
			v-13.5c0-3.2-0.4-4-2.4-4c-0.7,0-1.1,0-1.1-0.6s0.4-0.6,0.8-0.6h6.1c0.4,0,0.7,0,0.7,0.5s-0.7,0.5-1.4,0.6
			c-1.6,0.1-1.6,1.1-1.6,3.2v13.9c0.2,2.2-0.4,4.4-1.7,6.2c-1.8,2-4.4,3-7,2.8c-2.3,0.1-4.6-0.6-6.6-1.9c-1.7-1.6-2.5-3.9-2.2-6.2
			v-15.5c0-2.1,0-2.5-1.7-2.5c-0.8,0-1.1-0.2-1.1-0.6c0-0.5,0.4-0.5,0.7-0.5h7.9c0.5,0,0.9,0,0.9,0.5s-0.5,0.5-1.2,0.6
			c-1.8,0-2.2,0.2-2.2,3L41,129.8z"/>
	</g>
	<g transform="matrix(1,0,0,1,-10.1815,-10.63)">
		<path class="st1" d="M66.5,114.8c0-2.2,0-2.7-1.8-2.9c-0.8,0-1.3,0-1.3-0.6s0.6-0.6,1-0.6h4.3c0.7,0,1,0.6,1.7,1.8
			c2.7,4.3,7.9,12.8,11.1,17.5c0.3,0.6,0.7,1.1,1.1,1.6s0.1-0.3,0.1-0.6v-15.7c0-2.7-0.3-3.3-2.1-3.4c-0.6,0-1.3,0-1.3-0.6l0,0
			c0-0.3,0.3-0.6,0.6-0.6c0,0,0,0,0.1,0h6.4c0.5,0,0.7,0.2,0.7,0.6s-0.5,0.5-1.3,0.6c-1.8,0-1.9,0.8-1.9,2.8v22.5c0,0.9,0,1-0.4,1
			s-0.6-0.4-1.3-1.7l-1.4-2c-4-6.3-8.1-12.4-12-18.7c-0.2-0.6-0.6-1.1-1.1-1.6c-0.2,0.3-0.2,0.7-0.2,1v16.4c0,3.8,0.1,4.7,2.2,4.8
			c0.8,0.2,1.5,0,1.5,0.6s-0.3,0.5-0.7,0.5h-6.9c-0.4,0-0.6-0.2-0.6-0.5c0-0.4,0.9-0.5,1.5-0.6c1.7-0.2,1.8-0.9,1.8-2.9v-18.7H66.5z
			"/>
	</g>
	<g transform="matrix(1,0,0,1,-10.1815,-10.63)">
		<path class="st1" d="M98.6,133.7c0,2,0,2.7,2.1,2.7c0.6,0,1.4,0.1,1.4,0.7s-0.2,0.5-0.8,0.5H93c-0.5,0-0.8,0-0.8-0.5
			s0.7-0.5,1.3-0.6c1.9-0.2,2-0.5,2-2.7v-19.4c0-2-0.2-2.4-1.9-2.4c-1,0-1.5,0-1.5-0.6s0.3-0.5,0.8-0.5h8.1c0.5,0,0.9,0.2,0.9,0.6
			s-0.6,0.5-1.6,0.6c-1.7,0-1.9,0.6-1.9,2.4v19.2H98.6z"/>
	</g>
	<g transform="matrix(1,0,0,1,-10.1815,-10.63)">
		<path class="st1" d="M116.6,111.1c0,0.4-0.4,0.5-1.3,0.6c-0.5,0-1.4,0.4-1.4,0.9c0.1,0.6,0.2,1.2,0.5,1.8l4.9,14.1
			c0.3,1.2,0.8,2.4,1.4,3.4c0.8-1.6,1.4-3.3,1.7-5.1l3.7-11.3c0.3-0.9,0.5-1.8,0.5-2.7c0-0.9-0.7-1.1-1.7-1.2
			c-0.9-0.1-1.3,0-1.3-0.5s0.4-0.6,0.8-0.6h5.7c0.4,0,0.6,0,0.6,0.5s-0.6,0.5-1.4,0.7c-0.8,0.2-1.3,1.1-2.1,3.5
			c-2.4,7.1-4.7,14.3-6.8,21.5c-0.2,0.6-0.5,1.6-0.9,1.6s-0.5-0.6-0.8-1.7c-1.8-5.6-5.1-15.2-7.7-22.7c-0.5-1.3-0.8-2.2-1.7-2.2
			c-0.9-0.1-1.4-0.3-1.4-0.6c0-0.4,0.3-0.5,0.7-0.5h7.2c0.4,0,0.7,0,0.7,0.5v0H116.6z"/>
	</g>
	<g transform="matrix(1,0,0,1,-10.1815,-10.63)">
		<path class="st1" d="M138.7,114.1c0-1.9-0.1-2.3-1.7-2.4c-0.8-0.1-1.4,0-1.4-0.6s0.3-0.6,0.9-0.6h16.2c0.8,0,0.8,0.2,0.8,1.7v4
			c0,1,0,0.9-0.4,0.9s-0.5-0.3-0.6-0.7c-0.2-0.4-0.4-0.9-0.5-1.3c-1.1-2.7-2.5-3.6-6.8-3.6c-0.9-0.1-1.8,0-2.7,0.3
			c-0.5,0.2-0.6,0.7-0.6,1.4v8c0,1.3,0,1.3,2.6,1.3c3.5,0,4.2-0.2,4.7-2c0.4-1.2,0.4-1.8,0.8-1.8s0.4,0,0.4,0.7
			c0,1.2-0.2,2.4-0.2,3.5c0,1.2,0.2,2.7,0.2,4.1c0,0.6-0.2,0.7-0.4,0.7s-0.5-0.8-0.8-1.7c-0.5-2-1.4-2.4-4.9-2.4
			c-2.2,0-2.4,0.1-2.4,1.1v8.5c0,2.9,1.5,3.5,4.5,3.5c4,0,5.5-0.9,6.8-4.7c0.4-1.1,0.5-1.5,0.9-1.5s0.4,0,0.4,0.4s0,1.1,0,2.7
			s-0.2,2.1-0.3,3s-0.4,1-0.9,1h-16.7c-0.7,0-1.1,0-1.1-0.6s0.5-0.5,1.1-0.6c2,0,2.2-0.6,2.2-2.9v-19.4H138.7z"/>
	</g>
	<g transform="matrix(1,0,0,1,-10.1815,-10.63)">
		<path class="st1" d="M165.8,122.9c0,0.6,0.3,0.7,1.5,0.7c3.1,0,7.4-1.2,7.4-6.1c0-0.2,0-0.5,0-0.7c0-3-2.4-5.4-5.4-5.4
			c-0.2,0-0.4,0-0.6,0c-2.7,0-3,0.5-3,2.7v8.8H165.8z M165.8,133.9c0,2,0.1,2.7,2.1,2.7c0.9,0,1.5,0.2,1.5,0.6s-0.3,0.5-0.8,0.5H160
			c-0.6,0-0.9,0-0.9-0.5s0.5-0.5,1.7-0.6c1.7,0,1.9-0.6,1.9-2.7v-19.2c0-2.2,0-2.7-1.9-2.9c-0.7,0-1.5,0-1.5-0.6s0.3-0.6,0.8-0.6
			h9.8c4.7,0,8.1,2.5,8.1,6.7c0,2.6-1.6,5-4.1,6c-0.8,0.3-1.6,0.6-2.4,0.7c0.8,0.4,1.4,1.1,1.8,2c1.6,3.3,2.7,6.1,3.9,8.1
			c0.7,1.4,1.3,2.5,2.5,2.7c0.6,0,1.6,0,1.6,0.7s-0.3,0.5-0.7,0.5h-4.3c-0.6,0-0.8-0.5-1.4-1.8c-1-2.1-2.2-4.9-3.9-8.7
			c-1.1-2.4-1.5-2.7-3.9-2.7c-1.1,0-1.3,0.3-1.3,1.3L165.8,133.9z"/>
	</g>
	<g transform="matrix(1,0,0,1,-10.1815,-10.63)">
		<path class="st1" d="M200.7,130L200.7,130c0,4.5-3.7,8.2-8.1,8.2c-0.3,0-0.6,0-0.8,0c-2,0-3.9-0.4-5.6-1.4
			c-0.5-0.3-0.7-0.9-0.7-2.7c-0.1-1.3-0.1-2.6,0-3.8c0-0.5,0.2-0.6,0.5-0.6c0.4,0,0.5,0.8,0.7,1.6c1.1,4.2,3.2,6,5.9,6l0,0
			c3,0,5.4-2.4,5.4-5.4c0-0.1,0-0.1,0-0.2c-0.1-2.9-2-5.5-4.7-6.5l-2-1.1c-2.7-1.5-5.4-3.4-5.4-7.1c0.2-3.8,3.4-6.8,7.2-6.8
			c0.2,0,0.3,0,0.5,0c1.8,0,3.5,0.4,5.2,1.1c0.5,0.2,0.4,0.5,0.5,1.4s0,1.8,0,3s0,1.5-0.4,1.5s-0.5-0.7-0.7-1.3
			c-0.9-3.4-2.5-4.8-5-4.8c-0.1,0-0.2,0-0.2,0c-2.4,0-4.4,1.9-4.4,4.3c0,3.8,3.7,5.4,6.6,6.8C197.8,123.6,200.7,125.8,200.7,130z"/>
	</g>
	<g transform="matrix(1,0,0,1,-10.1815,-10.63)">
		<path class="st1" d="M211.5,133.7c0,2,0,2.7,2.1,2.7c0.6,0,1.4,0.1,1.4,0.7s-0.3,0.5-0.9,0.5h-8c-0.4,0-0.8,0-0.8-0.5
			s0.7-0.5,1.3-0.6c1.9-0.2,2-0.5,2-2.7v-19.4c0-2-0.2-2.4-1.9-2.4c-0.9,0-1.5,0-1.5-0.6s0.2-0.5,0.8-0.5h8.1c0.5,0,0.8,0.2,0.8,0.6
			s-0.6,0.5-1.6,0.6c-1.7,0-1.9,0.6-1.9,2.4L211.5,133.7z"/>
	</g>
	<g transform="matrix(1,0,0,1,-10.1815,-10.63)">
		<path class="st1" d="M228.7,112.8c0-0.8-0.2-0.9-1.6-0.9c-2.5-0.3-5,1.2-5.8,3.6c-0.4,0.9-0.7,1.9-1.1,1.9c-0.5,0-0.5-0.1-0.5-0.6
			s0-0.6,0.2-1c0.3-1.5,0.7-3.4,1.1-5.1c0.2-0.7,0.3-1.2,0.6-1.2s0.5,0.3,0.5,0.5c0.1,0.3,0.2,0.9,1.2,0.9h14.2
			c1.4,0,1.8-0.2,2.1-0.8c0.2-0.6,0.2-0.6,0.6-0.6c0.4,0,0.5,0.3,0.5,1v1.2c0,1.4-0.2,3.1-0.3,4.5c0,0.8-0.2,1.2-0.6,1.2
			c-0.4,0-0.5-0.8-0.7-1.6c-0.7-2.3-1.2-3.8-4.1-3.8h-1.9c-1.2,0-1.2,0.2-1.2,1.3v20.6c0,2.2,0.2,2.7,1.9,2.7
			c0.8,0.1,1.6,0.1,1.6,0.6s-0.4,0.5-0.8,0.5h-8.5c-0.5,0-0.8,0-0.8-0.5s0.3-0.5,1.5-0.6c1.8,0,1.9-0.5,1.9-2.7L228.7,112.8
			L228.7,112.8z"/>
	</g>
	<g transform="matrix(1,0,0,1,-10.1815,-10.63)">
		<path class="st1" d="M272.6,112.8c0-0.8-0.2-0.9-1.6-0.9c-2.5-0.3-5,1.2-5.8,3.6c-0.4,0.9-0.7,1.9-1.1,1.9c-0.5,0-0.4,0-0.4-0.8
			c0-0.3,0.1-0.7,0.2-1c0.3-1.5,0.7-3.4,1.1-5.1c0.2-0.7,0.3-1.2,0.6-1.2s0.5,0.3,0.5,0.5c0.1,0.3,0.2,0.9,1.2,0.9h14.2
			c1.4,0,1.8-0.2,2.1-0.8c0.2-0.6,0.2-0.6,0.6-0.6s0.5,0.3,0.5,1v1.2c0,1.4-0.2,3.1-0.3,4.5c0,0.8-0.2,1.2-0.6,1.2s-0.5-0.8-0.7-1.6
			c-0.6-2.3-1.2-3.8-4.1-3.8h-2c-1.2,0-1.2,0.2-1.2,1.3v20.6c0,2.2,0.2,2.7,1.9,2.7c0.8,0.1,1.6,0.1,1.6,0.6s-0.4,0.5-0.8,0.5h-8.4
			c-0.5,0-0.8,0-0.8-0.5s0.3-0.5,1.5-0.6c1.8,0,1.9-0.5,1.9-2.7v-20.9H272.6z"/>
	</g>
	<g transform="matrix(1,0,0,1,-10.1815,-10.63)">
		<path class="st1" d="M253.4,126.8c0.8,0,1,0,1-0.3s-0.2-0.6-0.2-0.9c-0.6-1.8-1.5-4.3-2.5-7.7c-0.2-0.5-0.4-1.1-0.6-1.1
			c-0.2,0-0.5,0.5-0.7,1.4c-0.9,3.1-1.6,5.4-2.2,7.2c-0.1,0.4-0.2,0.8-0.3,1.2c0,0.2,0.2,0.3,0.9,0.3L253.4,126.8L253.4,126.8z
			 M248.3,127.9c-0.8,0-0.9,0-1.5,2c-0.6,1.8-1.1,3.6-1.5,5.4c0,1,1.1,1.2,2.1,1.3s1.2,0,1.2,0.6s-0.4,0.5-0.9,0.5h-6.4
			c-0.3,0-0.6,0-0.6-0.5s0.5-0.5,0.8-0.5c1.1,0,1.6-0.2,2.3-2.3c2.4-7.1,4.7-14.4,6.8-21.6c0.2-0.5,0.3-1,0.5-1.5s0.2-1.1,0.7-1.1
			s0.5,0.4,0.7,0.9c2.5,7.6,5,15.2,7.5,22.8c0.4,1.2,1,2.7,2.2,2.7c0.5,0,1.2,0.1,1.2,0.7s-0.3,0.4-0.8,0.4h-7.7
			c-0.3,0-0.7,0-0.7-0.4s0.6-0.6,1.2-0.6s1.8,0,1.8-1.2s-0.9-2.7-1.6-5.4c-0.7-2-0.6-2.2-2-2.2L248.3,127.9z"/>
	</g>
	<g transform="matrix(1,0,0,1,-10.1815,-10.63)">
		<path class="st1" d="M248.2,106.7c-1,0-1.8-0.9-1.8-1.8v-0.1c0-0.1,0-0.1,0-0.2c0-1,0.8-1.7,1.7-1.7h0.1c1,0.1,1.7,1,1.7,1.9
			C249.9,105.8,249.2,106.6,248.2,106.7L248.2,106.7z"/>
	</g>
	<g transform="matrix(1,0,0,1,-10.1815,-10.63)">
		<path class="st1" d="M255.3,106.7c-1-0.1-1.7-0.9-1.7-1.8v-0.1c0-0.1,0-0.1,0-0.2c0-1,0.8-1.7,1.7-1.7h0.1c1,0.1,1.7,1,1.7,1.9
			C257.1,105.8,256.4,106.6,255.3,106.7L255.3,106.7z"/>
	</g>
	<g transform="matrix(1,0,0,1,-10.1815,-10.63)">
		<path class="st1" d="M414.3,124c0-9.4-4.5-12.8-8.1-12.8c-4.1,0-8.3,3.7-8.3,12.9c0,9.1,4.2,12.9,8.3,12.9
			C409.7,137,414.3,133.6,414.3,124L414.3,124z M394.2,124c0-7.9,5.7-13.9,11.9-13.9c6.1,0,11.8,5.8,11.8,14c0,8.1-5.4,14-11.8,14
			S394.2,132,394.2,124L394.2,124z"/>
	</g>
	<g transform="matrix(1,0,0,1,-10.1815,-10.63)">
		<path class="st1" d="M439.8,130L439.8,130c0,4.5-3.7,8.2-8.1,8.2c-0.3,0-0.6,0-0.8,0c-2,0-3.9-0.4-5.6-1.4
			c-0.5-0.3-0.7-0.9-0.7-2.7c0-1.3,0-2.6,0.1-3.8c0-0.5,0.2-0.6,0.5-0.6s0.6,0.8,0.7,1.6c0.8,4.2,2.9,6,5.7,6l0,0
			c3,0,5.4-2.4,5.4-5.4c0-0.1,0-0.1,0-0.2c-0.1-2.9-2-5.5-4.8-6.5l-2-1.1c-2.7-1.5-5.4-3.4-5.4-7.1c0.2-3.8,3.4-6.8,7.2-6.8
			c0.2,0,0.3,0,0.5,0c1.8,0,3.5,0.4,5.2,1.1c0.4,0.2,0.4,0.5,0.5,1.4c0,0.9,0,1.8,0,3s0,1.5-0.4,1.5s-0.5-0.7-0.7-1.3
			c-0.9-3.4-2.7-4.8-5-4.8c-0.1,0-0.1,0-0.2,0c-2.4,0-4.4,1.9-4.4,4.3c0,3.8,3.7,5.4,6.5,6.8C436.8,123.6,439.8,125.8,439.8,130z"/>
	</g>
	<g transform="matrix(1,0,0,1,-10.1815,-10.63)">
		<path class="st1" d="M448.5,114.8c0-2.2,0-2.7-1.8-2.9c-0.8,0-1.3,0-1.3-0.6s0.6-0.6,1-0.6h4.3c0.7,0,1,0.6,1.7,1.8
			c2.7,4.3,7.9,12.8,11.1,17.5c0.3,0.6,0.7,1.1,1.1,1.6s0.1-0.3,0.1-0.6v-15.7c0-2.7-0.3-3.3-2.1-3.4c-0.6,0-1.3,0-1.3-0.6l0,0
			c0-0.3,0.3-0.6,0.6-0.6c0,0,0,0,0.1,0h6.5c0.5,0,0.7,0.2,0.7,0.6s-0.5,0.5-1.3,0.6c-1.8,0-1.9,0.8-1.9,2.8v22.5c0,0.9,0,1-0.4,1
			s-0.6-0.4-1.3-1.7c-0.4-0.6-0.9-1.4-1.4-2c-4-6.3-8.1-12.4-12-18.7c-0.2-0.6-0.6-1.1-1.1-1.6c-0.2,0.3-0.2,0.7-0.2,1v16.4
			c0,3.8,0,4.7,2.2,4.8c0.8,0.2,1.5,0,1.5,0.6s-0.3,0.5-0.7,0.5h-6.9c-0.4,0-0.6-0.2-0.6-0.5c0-0.4,0.9-0.5,1.5-0.6
			c1.7-0.2,1.8-0.9,1.8-2.9L448.5,114.8L448.5,114.8z"/>
	</g>
	<g transform="matrix(1,0,0,1,-10.1815,-10.63)">
		<path class="st1" d="M484.3,126.8c0.9,0,1,0,1-0.3s-0.2-0.6-0.2-0.9c-0.6-1.8-1.5-4.3-2.5-7.7c-0.1-0.5-0.4-1.1-0.6-1.1
			s-0.4,0.5-0.7,1.4c-0.9,3.1-1.7,5.4-2.2,7.2c-0.1,0.4-0.2,0.8-0.3,1.2c0,0.2,0.2,0.3,0.9,0.3L484.3,126.8L484.3,126.8z
			 M479.1,127.9c-0.8,0-0.9,0-1.5,2c-0.6,1.8-1.1,3.6-1.5,5.4c0,1,1.1,1.2,2.1,1.3s1.2,0,1.2,0.6s-0.4,0.5-0.9,0.5h-6.3
			c-0.3,0-0.6,0-0.6-0.5s0.5-0.5,0.8-0.5c1.1,0,1.6-0.2,2.3-2.3c2.4-7.1,4.7-14.4,6.8-21.6c0.2-0.5,0.3-1,0.5-1.5s0.2-1.1,0.7-1.1
			s0.5,0.4,0.7,0.9l7.5,22.8c0.4,1.2,0.9,2.7,2.1,2.7c0.5,0,1.3,0.1,1.3,0.7s-0.4,0.4-0.8,0.4H486c-0.4,0-0.7,0-0.7-0.4
			s0.6-0.6,1.2-0.6s1.8,0,1.8-1.2s-0.9-2.7-1.6-5.4c-0.6-2-0.6-2.2-1.9-2.2L479.1,127.9z"/>
	</g>
	<g transform="matrix(1,0,0,1,-10.1815,-10.63)">
		<path class="st1" d="M505.7,133c0,2.7,0.6,3.7,4.1,3.7c1.9,0.2,3.8-0.6,5-2.1c1.1-1.4,1.6-3.1,1.5-4.9c0.1-1.9-0.7-3.7-2.1-4.9
			c-1.8-1.4-4.1-2-6.3-1.7c-1.9,0-2.1,0.1-2.1,1.1v8.8H505.7z M505.7,121c0,1.1,0.2,1.2,1.6,1.2c1.5,0.1,2.9-0.1,4.3-0.5
			c2.1-0.8,3.3-2.8,3.1-5c0-0.1,0-0.1,0-0.2c0-2.9-2.4-5.2-5.2-5.2c-0.2,0-0.3,0-0.5,0c-3,0-3.3,0.6-3.3,2.3V121z M502.6,114.7
			c0-1.8-0.2-2.7-1.9-2.7h-1.3l0,0c-0.2,0-0.3-0.1-0.3-0.3l0,0c0-0.5,0.9-0.7,1.7-0.9c2.3-0.5,4.7-0.7,7.1-0.7
			c2.5-0.1,4.9,0.3,7.2,1.3c1.9,1,3.1,2.9,3.1,5c-0.2,3-2.5,5.4-5.4,5.9c0.7,0.1,1.3,0.2,1.9,0.5c3,1,5.1,3.8,5,7
			c0,2.3-1,4.4-2.7,5.9c-1.8,1.4-4,2-6.3,1.9h-10.4c-0.5,0-0.8-0.2-0.8-0.6s0.5-0.5,1.2-0.6c1.7,0,1.8-0.6,1.8-2.5L502.6,114.7z"/>
	</g>
	<g transform="matrix(1,0,0,1,-10.1815,-10.63)">
		<path class="st1" d="M531.7,122.9c0,0.6,0.3,0.7,1.5,0.7c3,0,7.3-1.1,7.3-6c0-0.2,0-0.4,0-0.6c0-3-2.4-5.4-5.4-5.4
			c-0.1,0-0.3,0-0.4,0c-2.7,0-3,0.5-3,2.5L531.7,122.9L531.7,122.9z M531.7,133.8c0,1.9,0.1,2.7,2,2.7c0.9,0.1,1.5,0.2,1.5,0.6
			s-0.3,0.5-0.8,0.5h-8.5c-0.6,0-0.9,0-0.9-0.5s0.5-0.5,1.6-0.7c1.7,0,1.8-0.6,1.8-2.7v-18.9c0-2.2,0-2.7-1.8-2.9
			c-0.7,0-1.5,0-1.5-0.6s0.3-0.6,0.8-0.6h9.7c4.6,0,8.1,2.5,8.1,6.6c0,2.6-1.6,4.9-4,5.9c-0.8,0.3-1.6,0.6-2.4,0.7
			c0.8,0.4,1.4,1.1,1.7,1.9c1.6,3.2,2.7,6,3.8,8.1c0.7,1.3,1.3,2.5,2.4,2.6c0.6,0,1.6,0,1.6,0.7s-0.3,0.5-0.7,0.5H542
			c-0.6,0-0.8-0.5-1.4-1.8c-1-2.1-2.2-4.8-3.8-8.6c-1.1-2.3-1.5-2.7-3.8-2.7c-1.1,0-1.2,0.3-1.2,1.3L531.7,133.8L531.7,133.8z"/>
	</g>
	<g transform="matrix(1,0,0,1,-10.1815,-10.63)">
		<path class="st1" d="M597.8,134.9c0,1.1,0,1.2-0.9,1.7c-2,1-4.2,1.6-6.4,1.5c-6.7,0-12-5.8-12-14s5.4-14,12.3-14
			c2,0,4,0.5,5.9,1.2c0.6,0.3,0.6,0.5,0.7,1.7c0.1,1.1,0.2,1.9,0.2,3.1s0,1.4-0.4,1.4s-0.6-0.7-1.5-2.4c-0.8-2.3-2.9-3.8-5.3-3.8
			c-4.7,0-8.3,4.5-8.3,12.6c0,8.6,3.9,13.2,8.5,13.2c2.6-0.1,4.9-2,5.4-4.6c0.7-1.9,0.9-2.9,1.3-2.9s0.6,0.1,0.6,0.9L597.8,134.9z"
			/>
	</g>
	<g transform="matrix(1,0,0,1,-10.1815,-10.63)">
		<path class="st1" d="M607.2,114.6c0-2.2,0-2.7-1.7-2.7c-0.7,0-1.4,0-1.4-0.6s0.3-0.5,0.7-0.5h7.8c0.5,0,0.7,0.2,0.7,0.5
			s-0.5,0.5-1.3,0.6c-1.6,0-1.8,0.5-1.8,2.3v8c0,1,0,1.2,0.2,1.2s0.6-0.5,1-1c1.5-1.7,4.3-4.8,6.3-7.2c0.6-0.7,1.5-1.8,1.5-2.3
			s-0.6-0.9-1.4-0.9c-0.8-0.1-1-0.1-1-0.6c0-0.4,0.3-0.5,0.8-0.5h7.3c0.5,0,0.8,0.2,0.8,0.5c0,0.4-0.6,0.5-1.3,0.6
			c-1.2,0-2.5,0.6-4.8,2.9c-1.5,1.6-2.9,3.2-4.3,4.9c-0.5,0.6-0.8,0.9-0.8,1.2c0.2,0.4,0.4,0.9,0.7,1.2c1.5,2.1,3.4,5.1,6.3,10
			c2.4,3.9,2.9,4.2,3.9,4.4c0.9,0.1,1.2,0,1.2,0.6s-0.4,0.5-0.9,0.5h-7.8c-0.6,0-0.9,0-0.9-0.5s0.6-0.5,1.3-0.6s1.6-0.1,1.6-1
			s-0.5-1.2-1.3-2.7l-5.1-8.1c-0.3-0.5-0.8-1.4-1.1-1.4s-1.9,1.6-1.9,2.3v7.8c0,2.4,0.4,2.9,1.5,3s1.5,0,1.5,0.6s-0.3,0.5-0.9,0.5
			H605c-0.5,0-0.8,0-0.8-0.5s0.3-0.5,0.9-0.6c2,0,2.1-0.4,2.1-2.9V114.6z"/>
	</g>
	<g transform="matrix(1,0,0,1,-10.1815,-10.63)">
		<path class="st1" d="M556.5,129.8c-0.2,1.8,0.2,3.5,1.1,5.1c1.3,1.5,3.2,2.3,5.2,2.2c2.2,0.1,4.4-0.9,5.7-2.7
			c1-1.5,1.4-3.3,1.2-5.1v-13.5c0-3.2-0.4-4-2.4-4c-0.7,0-1.1,0-1.1-0.6s0.4-0.6,0.8-0.6h6.1c0.4,0,0.7,0,0.7,0.5s-0.7,0.5-1.4,0.6
			c-1.6,0.1-1.6,1.1-1.6,3.2v13.9c0.2,2.2-0.4,4.4-1.7,6.2c-1.8,2-4.4,3.1-7,2.8c-2.3,0.1-4.6-0.6-6.6-1.9c-1.7-1.6-2.5-3.9-2.2-6.2
			v-15.5c0-2.1,0-2.5-1.7-2.5c-0.8,0-1.2-0.2-1.2-0.6c0-0.5,0.4-0.5,0.7-0.5h7.8c0.5,0,0.9,0,0.9,0.5s-0.6,0.5-1.2,0.6
			c-1.8,0-2.2,0.2-2.2,3v15.1H556.5z"/>
	</g>
	<g transform="matrix(1,0,0,1,-10.1815,-10.63)">
		<path class="st1" d="M559.1,106.7c-1-0.1-1.7-0.9-1.7-1.8v-0.1c0-0.1,0-0.1,0-0.2c0-0.9,0.8-1.7,1.7-1.7h0.1c1,0.1,1.7,1,1.7,1.9
			C560.8,105.8,560.1,106.6,559.1,106.7L559.1,106.7z"/>
	</g>
	<g transform="matrix(1,0,0,1,-10.1815,-10.63)">
		<path class="st1" d="M566.2,106.7c-1-0.1-1.8-0.9-1.8-1.9v-0.1c0-0.1,0-0.1,0-0.2c0-1,0.8-1.7,1.7-1.7h0.1c1,0.1,1.7,1,1.7,1.9
			C568,105.8,567.2,106.6,566.2,106.7L566.2,106.7z"/>
	</g>
	<g transform="matrix(1,0,0,1,-10.1815,-10.63)">
		<path class="st2" d="M384.5,98.9L356.1,84V55.4h28.4V98.9z M354.9,52.7l-13.7-7.2h26.1l13.3,7.2H354.9z M353.5,82.6l-5-2.7V66.4
			c-0.3-4.7-4.2-8.4-8.9-8.4c-4.7,0-8.6,3.7-8.9,8.4v13.4l-5,2.6V55l13.8-7.2l13.8,7.2L353.5,82.6z M324.3,52.7h-25.9l13.2-7.2H338
			L324.3,52.7z M323,83.9l-28.4,14.9V55.6H323V83.9z M367.9,42.7h-56.8L291.9,53v50.4l33.9-17.8l7.7-4V66.5c0.2-3.2,2.9-5.7,6.1-5.7
			s5.9,2.5,6.1,5.7v15.1l10.5,5.4l31.1,16.2v-50L367.9,42.7z M339.7,51.9L339.7,51.9c0.8,0,1.5,0.6,1.5,1.4c0,0.8-0.7,1.4-1.5,1.4
			s-1.4-0.6-1.5-1.4C338.2,52.5,338.9,51.9,339.7,51.9z M335.7,53.2L335.7,53.2c0,2.3,1.8,4.1,4,4.1s4-1.8,4-4s-1.8-4-4-4
			C337.6,49.4,335.8,51.1,335.7,53.2z M356.1,92.1l28.4,14.8v35.7l-44.9,23.5l-44.9-23.5v-35.8L323,92.1v35.6l16.6,8.8l0.6-0.4
			l15.9-8.4V92.1z M353.4,126l-13.8,7.3l-13.8-7.3V87.5l-2,1.1L292,105.2v39.1l47.7,24.9l47.8-24.9v-39.1l-33.9-17.7L353.4,126z"/>
	</g>
</g>
</svg>
