<?xml version="1.0" encoding="utf-8"?>
<!-- Generator: Adobe Illustrator 27.4.0, SVG Export Plug-In . SVG Version: 6.00 Build 0)  -->
<svg version="1.1" id="Ebene_1" xmlns="http://www.w3.org/2000/svg" xmlns:xlink="http://www.w3.org/1999/xlink" x="0px" y="0px"
	 viewBox="0 0 2527.3 746.1" style="enable-background:new 0 0 2527.3 746.1;" xml:space="preserve">
<style type="text/css">
	.st0{fill:#E6321E;}
	.st1{fill:#FFFFFF;}
	.st2{fill:#37AA32;}
	.st3{fill:#EB5B4B;}
</style>
<g>
	<path class="st0" d="M1260.1,745.9c-363.3,0-726.6,0-1090,0c-8.3,0-16.7,0.1-24.9-1c-15.1-2.1-29.8-6-43.9-12
		c-21.1-9-39.5-21.8-55.3-38.3c-14.6-15.3-25.9-32.7-33.9-52.3c-5.4-13.3-9-27.1-10.9-41.2c-1-7.4-1.1-15-1.1-22.4
		C0,441.2,0,303.8,0,166.5c0-8.3-0.2-16.8,1.2-24.9c1.7-9.9,4.5-19.6,7.5-29.2c5.3-17,14.2-32.3,24.6-46.7
		c5.5-7.6,11.9-14.8,18.8-21.1c8.5-7.7,17.7-14.8,27.7-20.6c12.3-7.2,25.1-13.3,38.9-17.2C135.3,2.1,152.1,0,169.3,0
		c372.5,0,745,0,1117.5,0c357.2,0,714.3,0,1071.5,0c19.5,0,38.6,2.7,57.1,9c27.1,9.3,50.2,24.7,69.4,46.1
		c18.6,20.7,31.2,44.4,37.7,71.3c3.2,13.3,4.9,26.9,4.9,40.7c-0.1,137.2-0.1,274.3-0.1,411.5c0,39.6-11.9,75.1-36.9,105.9
		c-25.2,31-57.6,50.2-96.6,58.3c-6.1,1.3-12.2,2.5-18.3,3.1c-5.8,0.5-11.6,0-17.4,0c-168.7,0-337.3,0-506,0
		C1654.7,745.9,1457.4,745.9,1260.1,745.9z M1269.5,691.3c362.5,0,724.9,0,1087.4-0.1c7.4,0,14.9-0.3,22.3-1.3
		c19.4-2.6,36.5-10.9,51.9-22.5c9.9-7.4,17.8-16.6,24.7-27.1c7.2-11,12.5-22.8,15.2-35.5c2-9.3,3-18.9,3-28.4c0.2-136,0.2-272,0-408
		c0-8.8-1.4-17.7-2.7-26.4c-1.5-9.9-5.7-18.9-9.9-27.9c-5.1-10.9-13-19.6-20.9-28c-5.3-5.6-12.1-9.9-18.4-14.5
		c-9.9-7.2-21.1-11.9-32.9-14.4c-9.9-2.1-20.2-3.2-30.3-3.2c-728.6-0.1-1457.2-0.1-2185.8-0.1c-12.4,0-24.7,1.5-36.6,4.6
		c-22.9,5.9-42,18.5-56.8,36.7c-17,21-25.3,45.3-25.3,72.6c0.1,136.5,0.1,273,0.1,409.5c0,9.4,0.4,18.8,2.7,28.1
		C62,625,71.5,642,85.3,656.6c10.8,11.4,23.3,20.3,37.8,26.5c9,3.9,18.5,6.3,28,7.8c6.7,1,13.7,0.5,20.6,0.5
		C537.6,691.3,903.5,691.3,1269.5,691.3z"/>
	<path class="st1" d="M1269.5,691.3c-366,0-731.9,0-1097.9,0c-6.9,0-13.9,0.6-20.6-0.5c-9.6-1.5-19-3.9-28-7.8
		c-14.5-6.2-27-15.1-37.8-26.5C71.2,642,61.8,625,57,605.4c-2.3-9.3-2.7-18.6-2.7-28.1c0-136.5,0.1-273-0.1-409.5
		c0-27.3,8.3-51.6,25.3-72.6c14.8-18.2,33.9-30.8,56.8-36.7c11.9-3.1,24.2-4.6,36.6-4.6c728.6,0,1457.2,0,2185.8,0.1
		c10.1,0,20.4,1.1,30.3,3.2c11.8,2.5,23,7.2,32.9,14.4c6.3,4.6,13.1,8.9,18.4,14.5c8,8.5,15.8,17.1,20.9,28c4.2,9.1,8.4,18,9.9,27.9
		c1.3,8.7,2.7,17.6,2.7,26.4c0.2,136,0.2,272,0,408c0,9.5-1,19.2-3,28.4c-2.8,12.7-8,24.4-15.2,35.5c-6.8,10.5-14.8,19.7-24.7,27.1
		c-15.4,11.6-32.6,19.9-51.9,22.5c-7.4,1-14.9,1.3-22.3,1.3C1994.5,691.3,1632,691.3,1269.5,691.3z M1261.9,674.1
		c365.7,0,731.3,0,1097,0c5.6,0,11.3-0.1,16.8-1c34.8-5.6,59-25,73.3-57c5.7-12.8,7.2-26.4,7.2-40.3c0-132.7,0-265.3-0.1-398
		c0-6.9-0.8-13.8-1.1-20.8c-0.6-11.3-3.7-21.9-8.6-32.1c-9-18.7-23.1-32.4-41.2-41.8c-14.7-7.6-30.6-10.8-47.3-10.8
		c-724.1,0-1448.3,0-2172.4,0c-12.3,0-24.7-1-36.7,1.9c-8.6,2.1-17.3,4.6-25.3,8.3c-6.6,3-12.5,7.6-18.5,12
		c-8,5.9-13.8,13.6-18.7,21.6c-9.8,15.9-14.8,33.3-14.7,52.5c0.3,136.7,0.2,273.3,0.2,410c0,5.4-0.6,10.9,0.4,16
		c2,10.5,5.4,20.6,10.4,30.1c6.8,13,16.5,23.4,28.1,31.9c6.8,5,14.6,9,22.4,12.1c6.9,2.7,14.5,4.1,21.9,5.1c5.6,0.8,11.3,0.2,17,0.2
		C535.3,674.1,898.6,674.1,1261.9,674.1z"/>
	<path class="st2" d="M1261.9,674.1c-363.3,0-726.6,0-1090,0c-5.7,0-11.4,0.6-17-0.2c-7.4-1.1-15-2.4-21.9-5.1
		c-7.9-3.1-15.7-7.1-22.4-12.1c-11.5-8.5-21.3-18.9-28.1-31.9c-5-9.6-8.4-19.7-10.4-30.1c-1-5.2-0.4-10.7-0.4-16
		c0-136.7,0.1-273.3-0.2-410c0-19.2,5-36.6,14.7-52.5c4.9-8,10.7-15.7,18.7-21.6c6-4.4,11.9-9,18.5-12c8.1-3.6,16.7-6.2,25.3-8.3
		c12-2.9,24.5-1.9,36.7-1.9c724.1,0,1448.3,0,2172.4,0c16.6,0,32.6,3.2,47.3,10.8c18.1,9.4,32.1,23.1,41.2,41.8
		c5,10.3,8,20.8,8.6,32.1c0.4,6.9,1.1,13.8,1.1,20.8c0.1,132.7,0,265.3,0.1,398c0,13.9-1.5,27.5-7.2,40.3
		c-14.3,32-38.5,51.4-73.3,57c-5.5,0.9-11.2,1-16.8,1C1993.3,674.1,1627.6,674.1,1261.9,674.1z M1263.3,638.2
		c364.3,0,728.6,0,1092.9,0.1c10,0,19.5-0.9,28.8-5.1c10.9-4.9,19.7-12.1,26.2-22c6.9-10.5,9.2-22.4,9.2-34.9
		c0-135.2,0-270.3-0.1-405.5c0-5.1-0.4-10.2-1.3-15.2c-3.1-17-12.3-30-26.9-39c-10.1-6.2-21.3-8.6-33.1-8.6
		c-730,0-1459.9,0-2189.9,0c-1.2,0-2.3,0-3.5,0c-23.9,0.3-45,14.9-53.9,36.9c-3.5,8.5-4.2,17.2-4.2,26.3c0.2,136,0.1,272,0,408
		c0,5.9,0.6,11.6,2.4,17.2c6.6,20.4,20.5,33.2,40.8,39.6c6.7,2.1,13.4,1.9,20.1,1.9C535,638.2,899.1,638.2,1263.3,638.2z"/>
	<path class="st1" d="M1263.3,638.2c-364.1,0-728.3,0-1092.4,0c-6.7,0-13.4,0.3-20.1-1.9c-20.3-6.5-34.2-19.2-40.8-39.6
		c-1.8-5.6-2.4-11.3-2.4-17.2c0.1-136,0.1-272,0-408c0-9.1,0.7-17.8,4.2-26.3c9-22.1,30.1-36.7,53.9-36.9c1.2,0,2.3,0,3.5,0
		c730,0,1459.9,0,2189.9,0c11.8,0,23,2.4,33.1,8.6c14.6,9,23.8,22,26.9,39c0.9,5,1.3,10.1,1.3,15.2c0.1,135.2,0.1,270.3,0.1,405.5
		c0,12.4-2.2,24.3-9.2,34.9c-6.5,9.9-15.3,17.1-26.2,22c-9.3,4.2-18.8,5.1-28.8,5.1C1991.9,638.2,1627.6,638.2,1263.3,638.2z
		 M1651,197.2c-0.3,0.3-0.6,0.5-0.9,0.8c-0.1,1.2-0.2,2.3-0.2,3.5c0,114.1,0,228.2,0,342.3c0,1.5,0.1,2.9,0.2,4.6
		c28.6,0,57,0,85.6,0c0-117.2,0-234.2,0-351.2C1707.3,197.2,1679.2,197.2,1651,197.2z M783.8,198c-0.3-0.3-0.6-0.5-0.9-0.8
		c-0.5,0-1-0.1-1.5-0.1c-69.3,0-138.6,0-207.9,0c-1.1,0-2.2,0.3-3.2,0.4c0,116.9,0,233.4,0,350.1c71.3,0,142.3,0,213.4,0
		c0-25.4,0-50.5,0-75.7c-0.3-0.3-0.6-0.5-0.9-0.8c-42,0-84.1,0-126,0c0-20.6,0-40.1,0-60.3c42.4,0,84.6,0,126.9,0
		c0-25.7,0-50.8,0-75.9c-0.3-0.3-0.6-0.5-0.9-0.8c-1.8,0-3.7-0.1-5.5-0.1c-38.3,0-76.6,0-114.9,0c-1.8,0-3.6,0-5.6,0
		c0-20.2,0-39.9,0-60.2c42.4,0,84.6,0,126.9,0C783.8,248.3,783.8,223.2,783.8,198z M2071.1,492c0.3,0.3,0.6,0.7,0.9,1
		c3.4,5.7,6.6,11.5,10.3,17c6.7,10,14.9,18.7,25.2,25.2c7.8,5,15.9,9.5,24.6,12.7c4.6,1.7,9.1,4,13.8,4.9c11.8,2.3,23.5,5,35.7,4.5
		c10-0.4,20.1,0.2,30.1-0.5c8.5-0.6,17-1.3,25.4-3.4c13.9-3.5,27-8.4,39.2-16.1c7.3-4.6,13.5-10.2,18.8-16.8
		c9.8-12.3,15.5-26.3,18.2-42c3-17.8,4.3-35.6,4.2-53.6c-0.2-24,0-48,0-72c0-1.8,0-3.6,0-5.6c-41.7,0-83.1,0-124.2,0
		c0,25.6,0,50.9,0,76.6c13.1,0,25.9,0,38.7,0c0,9.7,0.3,19-0.2,28.3c-0.2,3.5-1.5,7.2-3.2,10.2c-4.3,7.5-10.5,12.9-19,15.8
		c-7,2.4-14.1,2.1-21.1,1.6c-4.8-0.3-9.7-1.5-14.1-3.3c-7.5-3-12.7-8.8-17-15.7c-6.9-11.2-11-23.2-11.1-36.3
		c-0.2-33.3-0.3-66.7-0.1-100c0.1-14.9,3.9-28.9,12.9-41.1c6.8-9.2,15.6-14.6,26.8-16.4c6.7-1.1,13.1,0.6,19.7,0.8
		c10.5,0.5,23,12,23.8,21.6c0.4,5,1.5,10,2.4,15.2c28.3,0,56.8,0,85.7,0c-1.3-19-2.9-37.5-9.5-55.1c-5.9-15.7-15.5-29.1-29.6-38.6
		c-9.1-6.1-18.7-10.9-29.4-14.1c-10.4-3.1-20.9-5.4-31.6-6.6c-15.4-1.6-30.9-1.6-46.4-0.2c-22.6,1.9-43.5,8.7-62.4,21.2
		c-12.7,8.4-22.9,19.1-30.8,32.1c-5.2,8.5-8.9,17.6-12.3,26.9c-3.3,8.9-4.6,18.2-6.2,27.4c-1.5,8.9-1,18.3-1.1,27.4
		c-0.1,31.2-0.2,62.3,0,93.5c0.1,11.1,0.9,22.3,1.9,33.4c0.7,8.1,2,16.2,5.1,23.8C2067.4,481,2069.2,486.5,2071.1,492z M966,549
		c0.5,0.1,1,0.2,1.5,0.2c29.2,0,58.3,0,87.5,0c0.9,0,1.8-0.2,3-0.4c0-1.1,0-1.9,0-2.7c0-32.2,0.1-64.3-0.1-96.5
		c-0.1-8.1-0.7-16.3-2.1-24.2c-3.1-17.2-11.5-31.5-26.4-41.2c-3.3-2.1-6.6-4.2-10.1-6.5c12.7-8.1,22.4-18.4,28.6-31.8
		c5.5-11.7,7.4-24.2,8.6-37c1.7-18.1,1.1-36.2-2.8-54c-4.5-20.5-16.1-35.9-34.8-45.6c-17.7-9.2-36.8-11.9-56.3-12
		c-48.5-0.2-97-0.1-145.5-0.1c-1.4,0-2.9,0-4.5,0c0,117.4,0,234.3,0,351.3c28.7,0,57.1,0,86.1,0c0-45.8,0-91.4,0-136.9
		c1-0.3,1.5-0.5,2-0.5c14.5,0,29-0.2,43.5,0.1c4.9,0.1,10.3,0.8,13.4,5.3c2.4,3.5,4.8,7.5,5.4,11.6c1.4,8.7,2.1,17.7,2.2,26.5
		c0.3,31.2,0.2,62.3,0.2,93.5C965.5,548.3,965.7,548.7,966,549z M1854,368.1c1.6,3.2,3.2,6.5,4.8,9.7c8.2,16.9,16.3,33.9,24.5,50.8
		c9.3,19.3,18.7,38.7,28,58c7.7,16.1,15.3,32.2,23.1,48.3c2.2,4.6,4.7,9.1,7,13.5c30.3,0,60.4,0,90.5,0c0-117.2,0-234.1,0-350.9
		c-28.6,0-56.8,0-85.7,0c0,61.6,0,122.9,0,184.2c-0.4,0.1-0.7,0.2-1.1,0.2c-29-61.6-58-123.2-86.8-184.4c-30.9,0-61.2,0-91.4,0
		c0,117.1,0,233.9,0,350.8c28.9,0,57.4,0,86.2,0c0-2.2,0-4,0-5.8c0-51.2,0-102.3,0-153.5c0-7,0.1-14,0.1-21
		C1853.3,368,1853.7,368,1854,368.1z M454.3,197.3c0,2.4,0,4.4,0,6.4c0,82.7,0,165.3,0,248c0,1.7,0.2,3.4-0.1,5c-0.6,4.8-2,9-6,12.4
		c-10.6,8.9-27.1,1.6-29.9-10.3c-0.5-2.1,0.3-4.5,0.3-6.7c0-82.8,0-165.7,0-248.5c0-2,0-3.9,0-6c-29.1,0-57.6,0-86.6,0
		c0,2.3,0,4.3,0,6.2c0,82.8,0,165.7,0,248.5c0,2,0.3,4.1-0.1,6c-0.5,2.4-1,5.2-2.5,6.9c-4.6,5.4-10.7,8.9-18,7.7
		c-7.3-1.2-13-5.3-15-12.9c-0.7-2.6-0.2-5.6-0.2-8.4c0-82.8,0-165.7,0-248.5c0-1.8,0-3.6,0-5.5c-29,0-57.5,0-86.3,0c0,2.2,0,4,0,5.9
		c0,23,0,46,0,69c0,70.5,0,141,0.2,211.5c0,11.3,3.5,22,9.4,31.6c14.1,23.2,34.9,36.3,61.5,40.7c13.4,2.2,26.8,1.9,40.1-0.4
		c19.7-3.4,35.2-13.5,45.8-30.7c3.6-5.9,7.1-11.9,10.4-17.5c5.4,7.8,10.9,15.7,16.4,23.6c11.5,16.4,28,24,47.3,25.6
		c11.7,0.9,23.6,0.6,35.2-1.8c13.9-2.9,26.8-7.9,37.8-17.2c18.5-15.6,26.9-36,26.9-59.8c0.1-92.3,0.1-184.7,0.1-277
		c0-1.3-0.2-2.5-0.4-3.8C511.7,197.3,483.4,197.3,454.3,197.3z M1355.2,548.4c0-117.3,0-234.2,0-351c-28.9,0-57.3,0-86.3,0
		c0,61.6,0,122.9,0,184.2c-0.4,0.1-0.8,0.2-1.1,0.3c-29-61.6-58-123.2-86.9-184.6c-30.5,0-60.5,0-90.6,0c0,117.1,0,234,0,351.1
		c28.7,0,57.1,0,86,0c0-60.6,0-120.8,0-181.1c0.3-0.1,0.6-0.1,0.8-0.2c29.2,60.4,58.3,120.8,87.5,181.2
		C1294.8,548.4,1324.8,548.4,1355.2,548.4z M1623.1,312.1c-0.5-17.1,1-33.7-2.9-50.3c-3.2-13.5-9.1-25.5-17.9-36
		c-10.3-12.3-23.7-20.3-38.1-26.6c-7.4-3.2-15.3-4.8-23.2-6.5c-8.4-1.8-16.7-2.9-25.1-3.8c-12.6-1.4-25.2-0.5-37.8,1
		c-13,1.5-25.5,4.2-37.5,9.1c-26,10.7-44.8,28.5-54,55.5c-1.9,5.7-4,11.7-4.3,17.7c-0.6,13.3-0.5,26.7-0.1,40c0.2,7.5,1,15,3.6,22.3
		c5.7,16.3,15.6,29.3,28.8,40.1c9,7.4,18.9,13.4,29.3,18.4c8.5,4.1,17.3,7.6,26.2,10.9c8.3,3.1,16.9,5.4,25.2,8.7
		c9.6,3.8,19.2,7.7,28.4,12.5c5.3,2.8,11.1,6.2,11.8,13.5c0.4,4.6,1.2,9.1,1.4,13.7c0.4,6.6-2.6,11.9-7.2,16.3
		c-5.4,5.1-11.4,8.6-19,9.8c-9.7,1.5-18.9,1.6-27.8-3.2c-9.9-5.3-16-12.7-15.1-24.6c0.4-5.7,0.1-11.5,0.1-17.4
		c-29.2,0-57.6,0-86.3,0c0,11.2-0.5,22.2,0.1,33.1c0.7,12.5,2.9,24.8,8.9,36.1c4.4,8.4,10,15.9,16.4,22.8
		c6.1,6.5,13.8,10.7,21.4,15.2c11.3,6.7,23.8,10.1,36.1,13.4c7.4,2,15.5,1.8,23.3,2.5c16.4,1.4,32.6,0.8,48.8-2.2
		c23.4-4.3,44.5-13.1,61.6-30.3c8.2-8.3,14.5-18,18.6-28.5c4.4-11.2,6.2-23.5,5.9-35.8c-0.3-11.1-1-22.2-1.2-33.3
		c-0.2-10.4-3.3-20-8.4-28.8c-7.9-13.5-18.7-24.6-31.8-33.3c-16.7-11.2-35.3-18.3-54.2-25.1c-14.3-5.1-28.7-9.9-42.4-16.6
		c-11.8-5.7-17.4-13.9-17-27.5c0.4-10.5,4.6-17.5,12.9-23c8.6-5.8,18.2-7,28.1-5.9c7.6,0.9,14.3,3.6,20.1,9.3
		c5.6,5.4,8.5,11.1,8.3,18.7c-0.2,5.9,0,11.9,0,18C1565.7,312.1,1594,312.1,1623.1,312.1z"/>
	<path class="st0" d="M454.3,197.3c29.1,0,57.4,0,86.2,0c0.1,1.3,0.4,2.5,0.4,3.8c0,92.3,0.1,184.7-0.1,277
		c0,23.8-8.4,44.2-26.9,59.8c-11,9.3-23.9,14.2-37.8,17.2c-11.7,2.4-23.5,2.8-35.2,1.8c-19.2-1.5-35.8-9.1-47.3-25.6
		c-5.5-7.9-11-15.8-16.4-23.6c-3.3,5.5-6.8,11.5-10.4,17.5c-10.5,17.2-26,27.3-45.8,30.7c-13.3,2.3-26.7,2.6-40.1,0.4
		c-26.6-4.4-47.4-17.6-61.5-40.7c-5.9-9.7-9.3-20.4-9.4-31.6c-0.2-70.5-0.2-141-0.2-211.5c0-23,0-46,0-69c0-1.8,0-3.7,0-5.9
		c28.7,0,57.2,0,86.3,0c0,1.9,0,3.7,0,5.5c0,82.8,0,165.7,0,248.5c0,2.8-0.5,5.8,0.2,8.4c2.1,7.5,7.8,11.7,15,12.9
		c7.3,1.2,13.4-2.3,18-7.7c1.5-1.7,2-4.5,2.5-6.9c0.4-1.9,0.1-4,0.1-6c0-82.8,0-165.7,0-248.5c0-2,0-3.9,0-6.2c28.9,0,57.5,0,86.6,0
		c0,2.1,0,4.1,0,6c0,82.8,0,165.7,0,248.5c0,2.3-0.8,4.6-0.3,6.7c2.9,11.9,19.3,19.2,29.9,10.3c4-3.3,5.4-7.6,6-12.4
		c0.2-1.6,0.1-3.3,0.1-5c0-82.7,0-165.3,0-248C454.3,201.6,454.3,199.7,454.3,197.3z"/>
	<path class="st0" d="M1853,368c0,7-0.1,14-0.1,21c0,51.2,0,102.3,0,153.5c0,1.8,0,3.6,0,5.8c-28.8,0-57.3,0-86.2,0
		c0-116.9,0-233.7,0-350.8c30.2,0,60.5,0,91.4,0c28.8,61.2,57.8,122.8,86.8,184.4c0.4-0.1,0.7-0.2,1.1-0.2c0-61.3,0-122.6,0-184.2
		c28.8,0,57.1,0,85.7,0c0,116.8,0,233.7,0,350.9c-30,0-60.1,0-90.5,0c-2.3-4.4-4.7-8.9-7-13.5c-7.7-16.1-15.3-32.2-23.1-48.3
		c-9.3-19.4-18.7-38.7-28-58c-8.2-16.9-16.3-33.9-24.5-50.8c-1.6-3.2-3.2-6.5-4.8-9.7c-0.2-0.6-0.5-1.3-0.7-1.9
		c-0.3,0.1-0.6,0.2-0.9,0.3C1852.6,367,1852.8,367.5,1853,368z M1946.5,383.5c-0.2-0.1-0.5-0.2-0.7-0.4c0,0.2,0,0.4,0,0.7
		C1946,383.7,1946.3,383.6,1946.5,383.5z"/>
	<path class="st0" d="M1355.2,548.4c-30.4,0-60.3,0-90.6,0c-29.2-60.4-58.3-120.8-87.5-181.2c-0.3,0.1-0.6,0.1-0.8,0.2
		c0,60.3,0,120.6,0,181.1c-28.9,0-57.3,0-86,0c0-117.1,0-234,0-351.1c30.2,0,60.1,0,90.6,0c28.9,61.3,57.9,122.9,86.9,184.6
		c0.4-0.1,0.8-0.2,1.1-0.3c0-61.3,0-122.6,0-184.2c29,0,57.4,0,86.3,0C1355.2,314.2,1355.2,431.1,1355.2,548.4z M1268.3,383.5
		l0.3,0.2v-0.3L1268.3,383.5z"/>
	<path class="st0" d="M965.2,548c0-31.2,0.1-62.3-0.2-93.5c-0.1-8.9-0.8-17.8-2.2-26.5c-0.6-4.1-3-8.1-5.4-11.6
		c-3.1-4.5-8.5-5.2-13.4-5.3c-14.5-0.3-29-0.1-43.5-0.1c-0.5,0-0.9,0.2-2,0.5c0,45.5,0,91.1,0,136.9c-29,0-57.4,0-86.1,0
		c0-117,0-233.9,0-351.3c1.6,0,3.1,0,4.5,0c48.5,0,97-0.1,145.5,0.1c19.5,0.1,38.6,2.8,56.3,12c18.7,9.8,30.3,25.1,34.8,45.6
		c3.9,17.8,4.5,35.8,2.8,54c-1.2,12.7-3.2,25.3-8.6,37c-6.2,13.4-15.9,23.6-28.6,31.8c3.5,2.3,6.8,4.3,10.1,6.5
		c15,9.8,23.3,24,26.4,41.2c1.4,8,2.1,16.1,2.1,24.2c0.2,32.2,0.1,64.3,0.1,96.5c0,0.8,0,1.6,0,2.7c-1.1,0.2-2.1,0.4-3,0.4
		c-29.2,0-58.3,0-87.5,0c-0.5,0-1-0.1-1.5-0.2C965.7,548.7,965.5,548.3,965.2,548z M900.3,274.8c0,22.8,0,45.1,0,67.6
		c15.7,0,31,0,46.3,0c3.4,0,6.2-1.2,8.3-3.8c1.8-2.4,3.7-4.8,5-7.4c5.8-11.8,7.6-24.1,5.2-37.1c-2.3-12.3-9.2-18.9-21.5-19.2
		C929.3,274.6,915,274.8,900.3,274.8z"/>
	<path class="st0" d="M2071.1,492c-1.9-5.5-3.7-11-5.9-16.4c-3.1-7.7-4.4-15.7-5.1-23.8c-1-11.1-1.8-22.3-1.9-33.4
		c-0.2-31.2-0.1-62.3,0-93.5c0-9.2-0.4-18.5,1.1-27.4c1.5-9.2,2.8-18.5,6.2-27.4c3.5-9.3,7.2-18.4,12.3-26.9
		c7.9-13,18.2-23.7,30.8-32.1c18.9-12.5,39.8-19.3,62.4-21.2c15.5-1.3,31-1.4,46.4,0.2c10.7,1.1,21.2,3.5,31.6,6.6
		c10.7,3.2,20.4,7.9,29.4,14.1c14.1,9.5,23.6,22.9,29.6,38.6c6.6,17.6,8.1,36.1,9.5,55.1c-28.9,0-57.5,0-85.7,0
		c-0.8-5.2-1.9-10.1-2.4-15.2c-0.8-9.5-13.4-21.1-23.8-21.6c-6.5-0.3-13-1.9-19.7-0.8c-11.2,1.8-20.1,7.3-26.8,16.4
		c-9,12.3-12.8,26.3-12.9,41.1c-0.3,33.3-0.1,66.7,0.1,100c0.1,13.1,4.1,25.1,11.1,36.3c4.3,6.9,9.5,12.7,17,15.7
		c4.4,1.8,9.3,3,14.1,3.3c7,0.5,14.1,0.8,21.1-1.6c8.5-2.9,14.7-8.3,19-15.8c1.8-3,3.1-6.7,3.2-10.2c0.4-9.3,0.2-18.6,0.2-28.3
		c-12.8,0-25.6,0-38.7,0c0-25.7,0-50.9,0-76.6c41.1,0,82.5,0,124.2,0c0,2,0,3.8,0,5.6c0,24-0.2,48,0,72c0.1,18-1.2,35.8-4.2,53.6
		c-2.6,15.7-8.3,29.7-18.2,42c-5.3,6.6-11.5,12.1-18.8,16.8c-12.2,7.7-25.3,12.6-39.2,16.1c-8.4,2.1-16.9,2.8-25.4,3.4
		c-10,0.7-20.1,0.1-30.1,0.5c-12.2,0.5-23.9-2.1-35.7-4.5c-4.8-0.9-9.2-3.2-13.8-4.9c-8.7-3.2-16.8-7.7-24.6-12.7
		c-10.3-6.6-18.4-15.2-25.2-25.2c-3.7-5.5-6.9-11.3-10.3-17C2071.7,492.7,2071.4,492.3,2071.1,492z"/>
	<path class="st0" d="M1623.1,312.1c-29.1,0-57.4,0-86.3,0c0-6.1-0.1-12,0-18c0.2-7.6-2.8-13.3-8.3-18.7c-5.9-5.7-12.5-8.5-20.1-9.3
		c-9.9-1.1-19.5,0.1-28.1,5.9c-8.3,5.5-12.5,12.5-12.9,23c-0.5,13.6,5.2,21.7,17,27.5c13.7,6.7,28.1,11.4,42.4,16.6
		c18.8,6.7,37.4,13.8,54.2,25.1c13.1,8.8,23.8,19.8,31.8,33.3c5.2,8.8,8.3,18.3,8.4,28.8c0.2,11.1,0.9,22.2,1.2,33.3
		c0.3,12.3-1.4,24.5-5.9,35.8c-4.1,10.5-10.5,20.2-18.6,28.5c-17,17.2-38.2,26-61.6,30.3c-16.2,3-32.4,3.6-48.8,2.2
		c-7.8-0.7-15.8-0.5-23.3-2.5c-12.4-3.3-24.8-6.7-36.1-13.4c-7.6-4.5-15.3-8.7-21.4-15.2c-6.4-6.9-12-14.4-16.4-22.8
		c-5.9-11.3-8.1-23.6-8.9-36.1c-0.6-10.9-0.1-21.9-0.1-33.1c28.7,0,57.2,0,86.3,0c0,5.9,0.3,11.7-0.1,17.4
		c-0.8,12,5.3,19.3,15.1,24.6c8.9,4.8,18.1,4.8,27.8,3.2c7.6-1.2,13.6-4.7,19-9.8c4.7-4.4,7.6-9.7,7.2-16.3c-0.3-4.6-1-9.1-1.4-13.7
		c-0.7-7.3-6.5-10.7-11.8-13.5c-9.2-4.8-18.8-8.7-28.4-12.5c-8.3-3.2-16.9-5.5-25.2-8.7c-8.8-3.3-17.7-6.8-26.2-10.9
		c-10.4-5-20.3-11.1-29.3-18.4c-13.2-10.8-23.1-23.9-28.8-40.1c-2.6-7.3-3.4-14.8-3.6-22.3c-0.4-13.3-0.5-26.7,0.1-40
		c0.3-5.9,2.3-11.9,4.3-17.7c9.1-27,27.9-44.8,54-55.5c12.1-5,24.6-7.6,37.5-9.1c12.6-1.5,25.2-2.3,37.8-1c8.4,0.9,16.8,2,25.1,3.8
		c7.9,1.7,15.8,3.3,23.2,6.5c14.5,6.3,27.9,14.3,38.1,26.6c8.8,10.5,14.8,22.5,17.9,36C1624,278.4,1622.6,295.1,1623.1,312.1z"/>
	<path class="st0" d="M783.9,335c0,25.1,0,50.2,0,75.9c-42.3,0-84.5,0-126.9,0c0,20.1,0,39.7,0,60.3c41.9,0,84,0,126,0
		c0.3,0.3,0.6,0.5,0.9,0.8c0,25.1,0,50.2,0,75.7c-71.2,0-142.2,0-213.4,0c0-116.7,0-233.2,0-350.1c1-0.1,2.1-0.4,3.2-0.4
		c69.3,0,138.6,0,207.9,0c0.5,0,1,0.1,1.5,0.1c0.3,0.3,0.6,0.5,0.9,0.8c0,25.1,0,50.2,0,75.9c-42.3,0-84.5,0-126.9,0
		c0,20.3,0,40,0,60.2c2,0,3.8,0,5.6,0c38.3,0,76.6,0,114.9,0c1.8,0,3.7,0.1,5.5,0.1C783.3,334.5,783.6,334.8,783.9,335z"/>
	<path class="st0" d="M1651,197.2c28.1,0,56.3,0,84.8,0c0,117.1,0,234.1,0,351.2c-28.6,0-57,0-85.6,0c-0.1-1.7-0.2-3.2-0.2-4.6
		c0-114.1,0-228.2,0-342.3c0-1.2,0.1-2.3,0.2-3.5C1650.4,197.8,1650.7,197.5,1651,197.2z"/>
	<path class="st3" d="M1853,368c-0.2-0.5-0.4-1.1-0.6-1.6c0.3-0.1,0.6-0.2,0.9-0.3c0.2,0.6,0.5,1.3,0.7,1.9
		C1853.7,368,1853.3,368,1853,368z"/>
	<path class="st3" d="M783.8,198c-0.3-0.3-0.6-0.5-0.9-0.8C783.3,197.5,783.6,197.8,783.8,198z"/>
	<path class="st3" d="M1651,197.2c-0.3,0.3-0.6,0.5-0.9,0.8C1650.4,197.8,1650.7,197.5,1651,197.2z"/>
	<path class="st3" d="M783.9,335c-0.3-0.3-0.6-0.5-0.9-0.8C783.3,334.5,783.6,334.8,783.9,335z"/>
	<path class="st3" d="M783.9,472c-0.3-0.3-0.6-0.5-0.9-0.8C783.3,471.5,783.6,471.8,783.9,472z"/>
	<path class="st3" d="M2071.1,492c0.3,0.3,0.6,0.7,0.9,1C2071.7,492.7,2071.4,492.3,2071.1,492z"/>
	<path class="st3" d="M965.2,548c0.3,0.3,0.5,0.7,0.8,1C965.7,548.7,965.5,548.3,965.2,548z"/>
	<path class="st3" d="M1946.5,383.5c-0.2,0.1-0.5,0.2-0.7,0.3c0-0.2,0-0.4,0-0.7C1946,383.3,1946.3,383.4,1946.5,383.5z"/>
	<polygon class="st3" points="1268.3,383.5 1268.6,383.4 1268.6,383.7 	"/>
	<path class="st1" d="M900.3,274.8c14.7,0,29-0.2,43.3,0.1c12.3,0.2,19.3,6.9,21.5,19.2c2.4,13,0.6,25.3-5.2,37.1
		c-1.3,2.6-3.2,5-5,7.4c-2,2.7-4.9,3.9-8.3,3.8c-15.3,0-30.6,0-46.3,0C900.3,319.9,900.3,297.6,900.3,274.8z"/>
</g>
</svg>
